/* XPM */
static char *a4fcdc10293a4c49ee8e53a7a3b46b91bK9fwEdAYXuJuo2b[] = {
/* columns rows colors chars-per-pixel */
"60 61 152 2 ",
"   c None",
".  c red",
"X  c #FF0101",
"o  c #FF0202",
"O  c #FF0303",
"+  c #FA0105",
"@  c #FE0404",
"#  c #FE0505",
"$  c #FE0606",
"%  c #FF0906",
"&  c #FE0909",
"*  c #FD0B0B",
"=  c #FD0C0C",
"-  c #EB0213",
";  c #EC0213",
":  c #ED0413",
">  c #FA1113",
",  c #FC1212",
"<  c #FC1313",
"1  c #FB1B1B",
"2  c #FB1E1E",
"3  c #DA0424",
"4  c #CB0633",
"5  c #C1053B",
"6  c #C1073D",
"7  c #C0073E",
"8  c #FA2121",
"9  c #FA2323",
"0  c #F92727",
"q  c #F92929",
"w  c #F82F2F",
"e  c #F73535",
"r  c #F73636",
"t  c #F83030",
"y  c #F83131",
"u  c #F83232",
"i  c #F83333",
"p  c #F73939",
"a  c #F73A3A",
"s  c #F63D3D",
"d  c #F63E3E",
"f  c #C00E44",
"g  c #F64040",
"h  c #F54646",
"j  c #F54747",
"k  c #F35353",
"l  c #F35454",
"z  c #F15F5F",
"x  c #F25E5E",
"c  c #EF6D6D",
"v  c #EF6E6E",
"b  c #EF6F6F",
"n  c #F16060",
"m  c #F2706D",
"M  c #EF7171",
"N  c #EE7474",
"B  c #EE7777",
"V  c #EE7878",
"C  c #ED7C7C",
"Z  c #7C0F80",
"A  c #6D118F",
"S  c #781084",
"D  c #4716B4",
"F  c #4015B9",
"G  c #4116B9",
"H  c #4116BA",
"J  c #5328B9",
"K  c #1616DF",
"L  c #1717DF",
"P  c #1818DF",
"I  c #1919DF",
"U  c #1A1ADF",
"Y  c #1B1BDF",
"T  c #1E1BDC",
"R  c #1C1CDF",
"E  c #1D1DDF",
"W  c #1E1EDF",
"Q  c #271AD4",
"!  c #221AD8",
"~  c #201ADA",
"^  c #211FDD",
"/  c #221EDC",
"(  c #2121DF",
")  c #2323DF",
"_  c #2E2EDF",
"`  c #3030DF",
"'  c #3131DF",
"]  c #3333DF",
"[  c #171AE1",
"{  c #171BE3",
"}  c #191BE1",
"|  c #1A1BE0",
" . c #181BE2",
".. c #2E31E1",
"X. c #6767DF",
"o. c #6B6BDF",
"O. c #7575DF",
"+. c #B5588E",
"@. c #AF80B6",
"#. c #EC8282",
"$. c #EB8888",
"%. c #E99999",
"&. c #E99B9B",
"*. c #E99C9C",
"=. c #CEA3B9",
"-. c #E7A4A4",
";. c #E7A5A5",
":. c #E7A6A6",
">. c #E7A7A7",
",. c #EAA9A6",
"<. c #E7A9A9",
"1. c #E6ABAB",
"2. c #E6AEAE",
"3. c #E6AFAF",
"4. c #E5B3B3",
"5. c #E6BBB9",
"6. c #E4BABA",
"7. c #9D9DDF",
"8. c #9F9FDF",
"9. c #A4A4DF",
"0. c #A8A8DF",
"q. c #A9A9DF",
"w. c #AAAADF",
"e. c #BEBEDF",
"r. c #A9ABE1",
"t. c #A9ACE1",
"y. c #C3C3DF",
"u. c #C4C4DF",
"i. c #CDCDDF",
"p. c #CECEDF",
"a. c #D6D6DF",
"s. c #DFDCDC",
"d. c #DFDDDD",
"f. c #DFDEDE",
"g. c #DFDFDF",
"h. c #E1D3D3",
"j. c #E1D4D4",
"k. c #E0D5D5",
"l. c #E0D6D6",
"z. c #E0D8D8",
"x. c #E0D9D9",
"c. c #E0DBDB",
"v. c #E0E0DF",
"b. c #E1E1DF",
"n. c #E2E2DF",
"m. c #C3C6E1",
"M. c #DFE0E0",
"N. c #DFE1E1",
"B. c #DFE2E2",
"V. c #DEE3E3",
"C. c #E0E3E1",
"Z. c #E2E5E2",
/* pixels */
"                                                                                                                        ",
"                                            . . . . . . . . . . . . . . . .                                             ",
"                                            . . . . . . . . . . . . . . . .                                             ",
"                                            . . . . . . . . . . . . . . . .                                             ",
"                                            . . . . . . . . . . . . . . . .                                             ",
"                            . . . . . . . . . . . . . . . . . . . . . . . . . . . . . . . .                             ",
"                            . . . . . . . . . . . . . . . . . . . . . . . . . . . . . . . . .                           ",
"                            . . . . . . . . . . . . . . . . . . . . . . . . . . . . . . . . .                           ",
"                            . . . . . . . . . . . . . . . . . . . . . . . . . . . . . . . . .                           ",
"                          . . . . . . . . . . . . . . . . . . . . . . . . . . . . . . . . . .                           ",
"                    . . . . . . . . . . . . . . . . . . . . . . . . . . . . . . . . . . . . . . . . .                   ",
"                    . . . . . . . . . . . . . . . . . . . . . . . . . . . . . . . . . . . . . . . . .                   ",
"                    . . . . . . . . . . . . . . . . . . . . . . . . . . . . . . . . . . . . . . . . .                   ",
"                  e h h h h h h h y . . . . . . . . . . . . . . . . e h h h h h h h 2 . . . . . . . .                   ",
"          . . . . b f.c.c.c.c.c.f.%.# . . . . . . . . . . . . . . * ;.f.c.c.c.c.c.f.z . . . . . . . . . . . .           ",
"          . . . . b B.f.f.f.f.f.B.*.# . . . . . . . . . . . . . . * ;.B.f.f.f.f.f.B.n . . . . . . . . . . . .           ",
"          . . . . b B.f.f.f.f.f.B.%.. . . . . . . . . . . . . . . # ;.B.f.f.f.f.f.B.z . . . . . . . . . . . .           ",
"          y y y y $.B.f.f.f.f.f.B.1.e y y 0 . . . . . . . # q y y a 4.B.f.f.f.f.f.B.C w y i 1 . . . . . . . .           ",
"          h.h.h.h.c.f.f.f.f.f.f.f.c.h.h.l.;.* . . . . . . < 2.l.h.l.f.f.f.f.f.f.f.f.c.h.h.l.M . . . . . . . .           ",
"          B.B.B.B.f.f.f.f.f.f.f.f.f.B.B.B.2.= . . . . . . < 6.B.B.B.f.f.f.f.f.f.f.f.f.B.B.B.V . . . . . . . .           ",
"          b.b.b.b.b.b.b.b.b.f.f.f.f.f.f.B.2.= . . . . . . < 6.C.b.b.b.b.b.b.b.f.f.f.f.f.f.B.N . . . . . . . .           ",
"          u.u.u.u.u.u.u.y.p.f.f.f.f.f.f.B.2.= . . . . . . > =.m.u.u.u.u.u.u.a.f.f.f.f.f.f.B.N . . . . . . . .           ",
"          ' ' ' ' ' ' ' _ O.f.f.f.f.f.f.B.2.= . . . . . . : J ..' ' ' ' ' ' 9.b.f.f.f.f.f.B.N . . . . . . . .           ",
"          Y Y Y Y Y Y Y L X.f.f.f.f.f.f.B.2.= . . . . . . - F [ Y Y Y Y Y W 7.b.f.f.f.f.f.B.N . . . . . . . .           ",
"          } Y Y Y Y Y Y Y X.f.f.f.f.f.f.B.2.= . . . . . . - F } Y Y Y Y Y W 7.b.f.f.f.f.f.B.N . . . . . . . .           ",
"          Q Y Y Y Y Y Y Y X.f.f.f.f.f.f.B.2.= . . . . . . - F } Y Y Y Y Y W 7.b.f.f.f.f.f.B.N . . . . . . . .           ",
"  . . . . A } Y Y Y Y Y Y X.f.f.f.f.f.f.B.2.= . . . . . . - F } Y Y Y Y Y W 7.b.f.f.f.f.f.B.N . . . . . . . . . . . .   ",
"  . . . . S [ Y Y Y Y Y Y X.f.f.f.f.f.f.B.2.= . . . . . . - F } Y Y Y Y Y W 7.b.f.f.B.f.f.B.N . . . . . . . . . . . .   ",
"  . . . . S [ Y Y Y Y Y L X.f.f.f.f.f.f.B.2.= . . . . . . - F } Y Y Y Y Y W 7.b.f.f.f.f.f.B.V . . . . . . . . . . . .   ",
"  . . . . Z T ~ ~ / ( ( W o.f.f.f.f.c.c.c.1.= . . . . . . ; D ~ ~ ~ / ( ( ( 7.b.f.f.c.c.c.c.N . . . . . . . . . . . .   ",
"  . . . . 3 7 7 5 +.r.0.0.e.f.f.B.2.g d d y . . . . . . . + 4 7 7 f @.t.0.0.p.b.f.B.#.a d d 9 . . . . . . . . . . . .   ",
"  . . . . . . . . m Z.b.b.b.f.f.B.%.. . . . . . . . . . . . . . . % ,.Z.b.b.b.f.f.B.z . . . . . . . . . . . . . . . .   ",
"  . . . . . . . . b B.f.f.f.f.f.B.*.# . . . . . . . . . . . . . . * ;.B.f.f.f.f.f.B.n . . . . . . . . . . . . . . . .   ",
"  . . . . . . . . b B.f.f.f.f.f.B.%.# . . . . . . . . . . . . . . * ;.B.f.f.f.f.f.f.z . . . . . . . . . . . . . . . .   ",
"  . . . . . . . . q l k k k k k l a . . . . . . . . . . . . . . . . d l k k k k k k 9 . . . . . . . . . . . . . . . .   ",
"  . . . . . . . . . . . . . . . . . . . . . . . . . . . . . . . . . . . . . . . . . . . . . . . . . . . . . . . . . .   ",
"  . . . . . . . . . . . . . . . . . . . . . . . . . . . . . . . . . . . . . . . . . . . . . . . . . . . . . . . . . .   ",
"  . . . . . . . . . . . . . . . . . . . . . . . . . . . . . . . . . . . . . . . . . . . . . . . . . . . . . . . . . .   ",
"  . . . . . . . . . . . . . . . . . . . . . . . . . . . . . . . . . . . . . . . . . . . . . . . . . . . . . . . . . .   ",
"  . . . . . . . . . . . . . . . . . . . . . . . . . . . . . . . . . . . . . . . . . . . . . . . . . . . . . . . . . .   ",
"  . . . . . . . . . . . . . . . . . . . . . . . . . . . . . . . . . . . . . . . . . . . . . . . . . . . . . . . . . .   ",
"  . . . . . . . . . . . . . . . . . . . . . . . . . . . . . . . . . . . . . . . . . . . . . . . . . . . . . . . . . .   ",
"  . . . . . . . . . . . . . . . . . . . . . . . . . . . . . . . . . . . . . . . . . . . . . . . . . . . . . . . . . .   ",
"  . . . . . . . . . . . . . . . . . . . . . . . . . . . . . . . . . . . . . . . . . . . . . . . . . . . . . . . . . .   ",
"  . . . . . . . . . . . . . . . . . . . . . . . . . . . . . . . . . . . . . . . . . . . . . . . . . . . . . . . . . .   ",
"  . . . . . . . . . . . . . . . . . . . . . . . . . . . . . . . . . . . . . . . . . . . . . . . . . . . . . . . . . .   ",
"  . . . . . . . . . . . . . . . . . . . . . . . . . . . . . . . . . . . . . . . . . . . . . . . . . . . . . . . . . .   ",
"  . . . . . . . . . . . . . . . . . . . . . . . . . . . . . . . . . . . . . . . . . . . . . . . . . . . . . . . . . .   ",
"  . . . . . . . . . . . . . . . . . . . . . . . . . . . . . . . . . . . . . . . . . . . . . . . . . . . . . . . . . .   ",
"  . . . . . . . . . . . . . . . . . . . . . . . . . . . . . . . . . . . . . . . . . . . . . . . . . . . . . . . . . .   ",
"  . . . . . . . . . . . . . . . . . . . . . . . . . . . . . . . . . . . . . . . . . . . . . . . . . . . . . . . . . .   ",
"  . . . . . . . . .         . . . . . . . . . . . .                 . . . . . . . . . . . . .         . . . . . . . .   ",
"  . . . . . . . .           . . . . . . . . . . . .                 . . . . . . . . . . . . .         . . . . . . . .   ",
"  . . . . . . . . .         . . . . . . . . . . . .                 . . . . . . . . . . . . .         . . . . . . . .   ",
"  . . . . . . . .           . . . . . . . . . . . .                 . . . . . . . . . . . .           . . . . . . . .   ",
"  . . . .                           . . . . . . . .                 . . . . . . . .                           . . . .   ",
"  . . . .                           . . . . . . . .                 . . . . . . . .                           . . . .   ",
"  . . . .                           . . . . . . . .                 . . . . . . . .                           . . . .   ",
"  . . . .                           . . . . . . . .                 . . . . . . . .                           . . . .   ",
"                                                                                                                        ",
"                                                                                                                        "
};
