/* XPM */
static char *_4461c230fad4ceedafac5d6b3ea6613qo7dTk4AJPeb12kW[] = {
/* columns rows colors chars-per-pixel */
"50 50 170 2 ",
"   c #200D0A",
".  c #2C120E",
"X  c #30140F",
"o  c #271310",
"O  c #2C1512",
"+  c #2E1916",
"@  c #341511",
"#  c #381712",
"$  c #341915",
"%  c #3C1914",
"&  c #331B18",
"*  c #3B1E1B",
"=  c #3E201C",
"-  c #431C16",
";  c #491E17",
":  c #421F19",
">  c #4A1F18",
",  c #521F17",
"<  c #45211B",
"1  c #4A221C",
"2  c #54231C",
"3  c #5A251D",
"4  c #60271F",
"5  c #61281F",
"6  c #68291E",
"7  c #762C1F",
"8  c #4D2621",
"9  c #542621",
"0  c #5A2721",
"q  c #552923",
"w  c #5C2A24",
"e  c #552E28",
"r  c #5F2D28",
"t  c #4C332F",
"y  c #4C3633",
"u  c #513430",
"i  c #642722",
"p  c #682723",
"a  c #642A22",
"s  c #6B2B24",
"d  c #632D29",
"f  c #6B2C28",
"g  c #722C26",
"h  c #782E21",
"j  c #742E2A",
"k  c #7A2F2A",
"l  c #653027",
"z  c #6C3127",
"x  c #66322B",
"c  c #6E332A",
"v  c #763024",
"b  c #7C3225",
"n  c #71322F",
"m  c #7C312C",
"M  c #6F3F34",
"N  c #763431",
"B  c #7B3532",
"V  c #723E34",
"C  c #7B3E32",
"Z  c #7D4135",
"A  c #7D493C",
"S  c #724640",
"D  c #7B4A40",
"F  c #823425",
"G  c #8A3626",
"H  c #83332C",
"J  c #88342E",
"K  c #8B3B2B",
"L  c #953B2B",
"P  c #9A3E2C",
"I  c #813734",
"U  c #8D3531",
"Y  c #823934",
"T  c #8B3C35",
"R  c #943733",
"E  c #963834",
"W  c #9B3A35",
"Q  c #A03F2F",
"!  c #A03B37",
"~  c #A33E39",
"^  c #834234",
"/  c #8B4134",
"(  c #844538",
")  c #884739",
"_  c #864E3F",
"`  c #8E4A3C",
"'  c #974232",
"]  c #9B4232",
"[  c #914638",
"{  c #99453B",
"}  c #944B3D",
"|  c #9B4B3D",
" . c #A3412E",
".. c #A44332",
"X. c #AC4334",
"o. c #AC4A36",
"O. c #A3433B",
"+. c #AB443C",
"@. c #A54A3D",
"#. c #AB4B3D",
"$. c #B34734",
"%. c #B74933",
"&. c #B94C36",
"*. c #B0473A",
"=. c #B34B3A",
"-. c #BB4F3B",
";. c #A9513F",
":. c #BD523D",
">. c #C1533E",
",. c #864E40",
"<. c #955344",
"1. c #9C5343",
"2. c #AB4B41",
"3. c #B34C42",
"4. c #A25041",
"5. c #AE5645",
"6. c #A15C4A",
"7. c #A95C4A",
"8. c #B35245",
"9. c #BC5543",
"0. c #B55A45",
"q. c #BD5D47",
"w. c #B25749",
"e. c #BC5448",
"r. c #B45949",
"t. c #BA5B4B",
"y. c #AD614E",
"u. c #AF6551",
"i. c #BC6352",
"p. c #C25641",
"a. c #C35B45",
"s. c #C85C46",
"d. c #C45C4C",
"f. c #CA5E49",
"g. c #C4614D",
"h. c #C9654D",
"j. c #CA624D",
"k. c #C06450",
"l. c #C56651",
"z. c #CA6150",
"x. c #CC6351",
"c. c #CE6753",
"v. c #CF6753",
"b. c #CD6752",
"n. c #C76957",
"m. c #CC6951",
"M. c #CA6C57",
"N. c #C66E5A",
"B. c #D36752",
"V. c #D36752",
"C. c #D06853",
"Z. c #D36A56",
"A. c #D36955",
"S. c #D46A56",
"D. c #D56A55",
"F. c #D76C57",
"G. c #D86D58",
"H. c #CE715C",
"J. c #CB735D",
"K. c #D0755F",
"L. c #D4775E",
"P. c #D2755E",
"I. c #D8705B",
"U. c #D9735D",
"Y. c #D9745D",
"T. c #D9755F",
"R. c #CF7961",
"E. c #D57A63",
"W. c #D97A62",
"Q. c #DA8067",
/* pixels */
"A.d.G x u s b ;.I.I.[ l - l x y F t.I.I.I.j.:.:.:.=.K S e ; K o.s.I.s 2 1 c f / I.I.I.l.1 t D I.I.j.",
"G.v.g 2 2 | @.#.#.C.5./ - b g - #.j.G.G.f.o.G G G F 6 - a T L L o.G.6 - % | K ] s.s.s.9.^ % l F.s.o.",
"G.v.a 3 z G.G.8.b j.G.g.3  .P 3 G.G.G.G.-.G 3 3 3 3 3 . ^ B.%.G ' G.7 - 1 G.p.%.%.%.%.-.G.1 l S.&.L ",
"G.C.b 6 z G.Y 3 a g.G.j.7 j.5.3 %.j.G.G.G.G.G.G.G.5.. . ^ g.3 % l G.G.' H G.G.G.G.+.! +.G.z Y v.a - ",
">.=.; 2 F G.g.Y % c t.S.d.S.4.# 1 b ..>.>.>.:.>.>.=.L . ^ A.t.w l G.G.j.g.G.G.G.G.x.z.x.G.2 a :. .P ",
" .P @ ; g t.t.C X 2 [ 5.t.t./ . . , h  . . . . . . . .. c 5.t.w q 5.5.r.t.t.t.t.t.t.t.t.t.: 2  . .P ",
"7 7 @ . @ 3 3 ; X 2 % @ 3 3 > . . . % 3 3 3 3 3 3 3 3 . . @ 3 % . . . > 3 3 3 3 3 3 3 3 3 @ % 3 3 - ",
"! ! ! ! R 3 3 ` E.+.! ! ! ! ! ! ! g g ! ! ! ! 3  .p.Q.! m c Q.8.! ! ! ! ! ! ! J 3 R ! ! ! a g ! ! ! ",
"3.X.! ! R 3 3 / h.t.t.t.e.X.X.! ! g g ! H m m m ! *.t.! m z h.g.t.t.e.*.X.! ! J 3 R J m m m J ! ! ! ",
"9. .! ! R 3 3 b X.M.K.H.g...! ! ! g s R s a a ! ! ! ! ! m a  .g.K.K.g.o.Q ! ! J 3 J k a a E W E W ! ",
"> @ E ! R 3 3 3 3 R ! R 3 @ 2 ! ! g 3 3 R ! ! ! ! W ! ! m 3 3 J ! ! 3 % % ! ! J 3 3 H ! ! ! J 3 W ! ",
"H k W J s % % % - s R W J k J ! g > % % s g g ! ! R g g 2 % % 0 H ! J m H ! H 0 % % 3 g g W J 3 s J ",
"J J J s ; . . . . ; g J J J J J > @ . . ; > > J k s > > % . . - 3 J J J J J 0 - . . % > > m g > 3 g ",
"3 3 3 - . . . . . . > 3 3 3 3 3 . . . . . . . 3 # . . . . . . . % 3 3 3 3 3 % . . . . . . 2 > X 2 3 ",
"W.v.a 3 2 . 6.m.&.B.W.Q.Q.I.5.3 3 % % 3 3 1.Q.Q.Q.u.. Q.Q.L.%.j.U.Q.Q.T.g.3 3 > . 2 3 c Q.Q.y.3 3 | ",
"8.#.a ( y.6.0.:.X.3.9.a.a.3.E 3 y.6.1.P a c ( 8.8.{ > a.a.9.X.#.8.a.a.8.O.3 } y.6.' g a ( 5.w.7.a Y ",
"W U 3 } L.L.9.X.! ! X.$.$.W H 3 K.K.l.$.g a a ! ! U 3 $.$.$.! ! ~ $.$.W J 3 7.K.K.-.H a a E 3.N.a k ",
"J 3 3 G %.%.X.! ! ! ! ! ! a 3 3 ! ! ! ! ! ! ! ! ! U 3 ! ! ! ! ! ! ! ! g 3 3 J ! ! ! ! ! ! ! ! W 3 3 ",
"% @ @ % 2 ~ b m ! ! k 3 % @ @ @ % H ! ! ! ! ! ! ! U 3 a a s ! ! U a % @ @ @ % i ! ! ! ! ! ! H % @ @ ",
"@ . . @ > J 3 a J J 3 ; % . . . % s J J J J J J k s > > > 2 J J g > % @ . . @ 2 J J J J J J s % . . ",
"2 % % 2 c c < 1 c c 2 ; 3 - % % c c c c a a a 3 ; % @ . X % c c a - 3 > % % a n c c f a a 3 a z - % ",
"s E E r.R.R.Z ) R.R.9.P 3 U E E R.R.R.R.O.W W 3 L L 2 . - l R.R.l.X.3 H E E i.E.R.R.w.W W a ^ J.W E ",
"a k W 2.t.t.d a } q.*.W 3 g J ! g.g.v.T.=.~ ! 3 L ! H g 2 1 ` 0.9.X.3 s m ! 9.g.g.I.a.X.! a l ` b U ",
"1 3 W ! ! ! s 2 5 ! ~ R > 2 g ! X.X.=.d.=.W J 3 U ! ! ! k 2 3 L X.! ; 2 a ! X.X.X.d.-.X.J i 2 > 3 m ",
"% 4 W ! ! ! ! H 3 R ! U . 2 g ! ! ! ! ! ! m 3 3 U ! ! ! ! R 3 J ! ! . > a ! ! ! ! ! ! R 3 3 > X 2 m ",
"X % E ! E a U W E W k 3 . @ 3 ! ! k a a E s @ @ 3 g ! ! ! W R W U a . @ ; ! ! U a a J U @ @ @ . @ > ",
". @ k m g - s m m m a 2 . . ; m m 2 - - i > . . % 2 m m m m m m g 3 . . # m m s - - 2 3 . . . . . @ ",
"@ # 3 3 2 X > 3 3 5 5 3 @ @ - 3 3 - . . . X X @ @ - a 3 3 3 3 3 5 5 @ @ % 3 3 1 X . . X X @ @ @ @ @ ",
"E E W W U 2 3 3 5  .X.X.E E W W W s ; . 1 2 2 E ..=.v.3 3 3 3 L X.X.E E E W W H 2 @ ; 2 2 U E E E E ",
"@.m m U W m m s 4 W $.&.e.J m m ! J s - g s 3 i W *.e.1./ k 3 L X.%.e.E m m R R m > a k 3 i k ! ! ! ",
"2.s 1 s U ! ! H 3 R P ] d.m a > J W J 3 R J g % k U W n.8.R 3 J W P d.T s > g R ! a H W g ; 3 ! ! ! ",
"! E @ - a ! ! H 3 R g a ! ! k . 3 J J 3 R ! ! 3 3 s ! ! ! R 3 J J 3 ! ! U . > g ! a H ! ! a g ! ! ! ",
"! W U R E ! ! g @ % 2 a ! ! W U R W J 3 R ! ! R R E ! ! ! U @ % > 3 ! ! W U R W ! a H ! ! E W ! ! ! ",
"m k p g m m m a - - 2 3 i i i i m m g 3 k m m m s i i m m g - - > 3 i i i i k m m 3 s m m m m m m m ",
"3 2 X - 3 0 a a a a 3 2 X . . . 2 3 a a a a 3 3 # . . 3 a a a a 3 3 X . . . ; 3 3 a a a 3 3 3 5 3 0 ",
"k X . - a W t.v.z.O.W U 2 @ . . X k #.v.v.8.W 3 # . . W 8.v.v.#.W W 2 % . . . 2 W d.v.d.W a v X.W W ",
"g k 1 - > ! +.3.3.~ ! W J % @ > k 2.d.>.3.+.! J - . . d.a.>.>.+.! ! J > @ > s E d.p.>.:.X.J H b g i ",
"k W 3 > > ! W R R R W ! ! ; - 3 ! d.a. .W R R W > @ % B.9... .W W ! ! 3 % 3 J 3.B.o. . . .! U a a > ",
"W W 3 b W W s 3 2 3 J W W a 3 3 W X.L 3 3 3 3 E s s W X.F 3 2 3 g W W s 3 0 J ~ $.s 3 3 3 U E E W m ",
"Y I q z Y Y a < * c I Y Y w r B Y T Y B B B B : 1 w Y a w 1 $ d B Y Y a w B I Y T B B B B 1 : < B B ",
"c B < q c I c d w B I B x q r I I I I I I I I = = 8 B = q d q N I I x q q I I I I I I I I 8 * & d x ",
"w n $ * 8 n n n n n N c 8 1 q N N n n n N N N 1 & * N $ 9 N N N n n 8 1 8 N N N n n N N N 8 = + < 1 ",
"1 < o o o o o o o o o O 1 O $ 1 1 $ o o < 1 1 o o @ < < % o o o o o 1 $ O 1 1 * o o * 1 1 O o o o % ",
",._ Z c 0 * * $ o % 9 d ,.A A ( f 1 $ o @ r ( A A M < < < % o $ 1 w ,.A A ( n 0 * O O < ( A V a C ( ",
"_ 1.| T j 1 1 < : 9 d c A <.1.| m 0 < : O q ( <.1.` 0 0 2 < : 9 w f A <.1.| Y f 1 : $ $ ( <.` m } 1.",
"1 K K J j 1 1 0 m m 0 < o b K K m 0 0 m $ % 1 m K K m m a 2 m m f 1 o s K K H f 1 j 1 O 1 j m m m J ",
"1 2 m m j 1 1 0 m m j f < 2 a m m 0 0 m 1 0 j m m m m m a 2 m m m j < 1 w m m f 1 j 0 1 j m m m m m ",
"f f w 0 9 1 1 1 0 j m m f f d 0 0 1 0 m f j m m m j 0 m a 1 0 f m m f f d 0 0 2 1 j j f m m j 0 0 f ",
"j f 1 < : : : : < s j m j j a < : : 2 j m m m j f a : j 0 : : a k m j j s < : : : s j m m j a : < 0 ",
"- - - @           % i s - - - -     . - s j j - .     - @     @ 2 j - - - - .     % 0 j j > @   % - "
};
