/* XPM */
static char *_8c6ed10446341dde7cd16481728eb61f71IRxaNiYsLpZ6o[] = {
/* columns rows colors chars-per-pixel */
"50 50 192 2 ",
"   c #000000",
".  c #0A0403",
"X  c #130603",
"o  c #1A0706",
"O  c #1C0905",
"+  c #240B04",
"@  c #250B08",
"#  c #2D0B06",
"$  c #340F05",
"%  c #3B1105",
"&  c #371009",
"*  c #3E1209",
"=  c #441405",
"-  c #49180E",
";  c #5C1C07",
":  c #5F1D09",
">  c #541F0B",
",  c #461D11",
"<  c #631B07",
"1  c #681E06",
"2  c #671F08",
"3  c #741E06",
"4  c #751E09",
"5  c #492113",
"6  c #752307",
"7  c #6E2E19",
"8  c #653C1F",
"9  c #783512",
"0  c #734D23",
"q  c #801F09",
"w  c #8A280A",
"e  c #8B260A",
"r  c #982C09",
"t  c #883A18",
"y  c #83361B",
"u  c #A72E09",
"i  c #B02D07",
"p  c #AB3308",
"a  c #B23009",
"s  c #BB3C0B",
"d  c #B23D0D",
"f  c #8B4313",
"g  c #994717",
"h  c #9B4B11",
"j  c #9A5018",
"k  c #BE4007",
"l  c #BD430A",
"z  c #BA6D13",
"x  c #944320",
"c  c #B25826",
"v  c #B86C2C",
"b  c #C4430B",
"n  c #C94E0B",
"m  c #C74908",
"M  c #C45C06",
"N  c #C95D06",
"B  c #C55508",
"V  c #C65B08",
"C  c #C95D0C",
"Z  c #CD510B",
"A  c #D1510A",
"S  c #CC5D13",
"D  c #CF6507",
"F  c #CE650A",
"G  c #CE690B",
"H  c #D66807",
"J  c #DD6C07",
"K  c #D2660C",
"L  c #DC6E09",
"P  c #D1750A",
"I  c #DF7109",
"U  c #D77E08",
"Y  c #DD790E",
"T  c #D57715",
"R  c #E37915",
"E  c #CE8413",
"W  c #D59D19",
"Q  c #F7840F",
"!  c #E7970E",
"~  c #E49B0D",
"^  c #F29A0E",
"/  c #F3970C",
"(  c #EF8013",
")  c #EE8F1E",
"_  c #F58211",
"`  c #F38E1D",
"'  c #ED9A10",
"]  c #ED9216",
"[  c #F59B11",
"{  c #F29716",
"}  c #E2A60F",
"|  c #EAA60F",
" . c #E7A80E",
".. c #EBAB0D",
"X. c #FDAE07",
"o. c #F5A20C",
"O. c #F6AC0E",
"+. c #FDAE0A",
"@. c #EFB80B",
"#. c #FEBE07",
"$. c #F4B50C",
"%. c #FEB50C",
"&. c #F3BB0E",
"*. c #FEBB0B",
"=. c #FEB206",
"-. c #EFA510",
";. c #EFAC12",
":. c #E6A913",
">. c #F1A514",
",. c #F7AA16",
"<. c #ECB515",
"1. c #F3B510",
"2. c #FDBF11",
"3. c #F0B71A",
"4. c #D3953D",
"5. c #DA9C3B",
"6. c #E19D20",
"7. c #E5AB3C",
"8. c #ECB930",
"9. c #EAB139",
"0. c #F3BD34",
"q. c #FFC406",
"w. c #FFC906",
"e. c #F0C00F",
"r. c #FEC30A",
"t. c #FECC0B",
"y. c #FFDF07",
"u. c #FED40B",
"i. c #FEDB0B",
"p. c #EFC412",
"a. c #EDC719",
"s. c #EBC81C",
"d. c #FDC414",
"f. c #FDCB13",
"g. c #FCC719",
"h. c #F5C412",
"j. c #FAD612",
"k. c #F7DA15",
"l. c #FDD51C",
"z. c #F7DB1C",
"x. c #FBDA1C",
"c. c #F9DD13",
"v. c #FFE707",
"b. c #FFE30C",
"n. c #FFED0B",
"m. c #FEF00D",
"M. c #FBE312",
"N. c #FEEC11",
"B. c #FAE61C",
"V. c #FEF113",
"C. c #FEF11F",
"Z. c #FCD922",
"A. c #FCD92B",
"S. c #FBD327",
"D. c #F5C637",
"F. c #F3C931",
"G. c #FADF3A",
"H. c #F5D536",
"J. c #FBEB27",
"K. c #FFF52C",
"L. c #FFEF32",
"P. c #FDE63E",
"I. c #FEF437",
"U. c #FFF53A",
"Y. c #FEF83E",
"T. c #ECBC49",
"R. c #EABC53",
"E. c #F5DA44",
"W. c #F8DA49",
"Q. c #F5D848",
"!. c #F3DA53",
"~. c #FCE041",
"^. c #FDEE44",
"/. c #FAE74B",
"(. c #FBEB4D",
"). c #FEF546",
"_. c #FEF54D",
"`. c #FEF94D",
"'. c #FAEB51",
"]. c #F6E453",
"[. c #FEF654",
"{. c #FFF953",
"}. c #FFF65D",
"|. c #FFF659",
" X c #FFFA59",
".X c #FFFB5C",
"XX c #FAED60",
"oX c #FEF760",
"OX c #FEF56C",
"+X c #FDFA63",
"@X c #FDF477",
"#X c #FEFA79",
/* pixels */
"                                                                                                    ",
"                                                                                                    ",
"                                                                                                    ",
"                                                                                                    ",
"                                                                                                    ",
"                                                                                                    ",
"                                                                                                    ",
"                                                                                                    ",
"                                                                                                    ",
"                                                                                                    ",
"                                                                                                    ",
"                                            . @ 5 8 0 0 8 , O                                       ",
"                                        O 9 5.!.|.[._._._.[.Q.4.7 X                                 ",
"                                      - W B.U.{.[.{.[.[.[.[._.`.'.4.-                               ",
"                                  . j z.N.V.U.{.[.|.[.{.[.[.{.{.{.`.!.x .                           ",
"                                . g B.N.n.m.I.{. X[.(.(.[.{.{.{.{._._.'.y .                         ",
"                                f M.n.n.n.m.J.0.` _ Q _ ( ` D._.[.{._.`.].y                         ",
"                              * s.n.n.n.m.j.{ ,.g.A.OXOXA.d.[ ) /.`._._.[.T.#                       ",
"                            X z N.n.n.m.h.[ f.l.[. X{.{.#X@X~.f.] Q.[.[.[.|.c .                     ",
"                            > a.n.n.n.M.o.t.t.L.{.{.{.{.{.`.+XA.f.{ _.[.[.}.R.&                     ",
"                            h M.b.n.n.:.r.r.u.C.[./.,.>._.{..XA.f.f.8.[.|.oXXXt                     ",
"                          . E b.b.v.k.$.r.r.t.N.U.^.x.l.F.E.W.S.f.f.3.'.|.}.}.v                     ",
"                          X } i.b.v.p.r.r.r.1.M.V.U.{.^.S.g.g.f.d.d.d.E.[.|.|.5..                   ",
"                          o ..i.b.b.h.r.r.r.*.-.j.V.Y. X{.).Z.f.d.d.d.H.[.[.|.7.O                   ",
"                          o ..i.i.b.t.*.r.r.*.#.O.>.1.z.).`._.l.d.d.d.G.[.[.[.9.+                   ",
"                          o ~ i.i.i.u.*.#.*.t.i.i.u.%.O.z.K.`.A.d.d.d.P._.^.L.6.+                   ",
"                          . Y u.u.i.u.*.*.*.t.n.n.b.r.r.M.m.V.f.*.*.2.M.M.b.N.T +                   ",
"                            Z u.u.i.i.r.*.*.d.N.n.n.n.b.n.n.M.*.*.%.t.b.b.b.c.S X                   ",
"                            u $.t.u.i.u.*.%.O.3.M.n.n.n.n.i.;.%.%.*.i.b.b.b.<.d                     ",
"                            4 R t.t.u.u.f.%.%.X./ ;.N.N...o.%.%.%.u.b.b.b.b.Y w                     ",
"                            + b ..t.t.u.i.Z.%.+.=.+./ / %.%.%.*.u.i.i.b.b. .n $                     ",
"                              e K &.t.t.t.j.j.d.%.+.X.X.+.%.r.u.i.i.i.y.e.L r .                     ",
"                              O s K &.r.r.t.t.t.t.t.t.t.t.u.u.u.u.u.y.&.I b +                       ",
"                                < l F | r.r.r.r.t.t.t.t.t.t.t.u.u.u...J A 3                         ",
"                                  1 l C ' O.r.r.r.r.q.r.q.w.t.t.@.U J A 3 .                         ",
"                                    6 s S G P ! $.*.r.r.r.$.~ P D H m q .                           ",
"                                      % p l V N N M M M M N D D n i %                               ",
"                                        X ; p k m B B B B B b a < X                                 ",
"                                              O = : 2 2 ; = O                                       ",
"                                                                                                    ",
"                                                                                                    ",
"                                                                                                    ",
"                                                                                                    ",
"                                                                                                    ",
"                                                                                                    ",
"                                                                                                    ",
"                                                                                                    ",
"                                                                                                    ",
"                                                                                                    ",
"                                                                                                    "
};
