/* XPM */
static char *_dae9ecb0dd54990aece683621cd75ccLlI2x7aLPNR5JedY[] = {
/* columns rows colors chars-per-pixel */
"49 46 221 2 ",
"   c #000000",
".  c #0B0400",
"X  c #070901",
"o  c #0D0A01",
"O  c #05050A",
"+  c #0C0B0B",
"@  c #130400",
"#  c #1A0400",
"$  c #130B00",
"%  c #1B0D00",
"&  c #161400",
"*  c #1C1606",
"=  c #1D1803",
"-  c #14110C",
";  c #0E0C1A",
":  c #110F19",
">  c #0D1211",
",  c #131314",
"<  c #1B1817",
"1  c #1B1A1A",
"2  c #240B00",
"3  c #231B00",
"4  c #261806",
"5  c #2C1E00",
"6  c #311C00",
"7  c #381E00",
"8  c #221C18",
"9  c #1E2015",
"0  c #2C2401",
"q  c #312300",
"w  c #332D07",
"e  c #3C3201",
"r  c #27251A",
"t  c #25221C",
"y  c #332C1C",
"u  c #3E3719",
"i  c #1A1924",
"p  c #1C1B26",
"a  c #242323",
"s  c #2A2527",
"d  c #2A2924",
"f  c #2C2B2B",
"g  c #322D2A",
"h  c #32312D",
"j  c #3C3928",
"k  c #343433",
"l  c #393737",
"z  c #3B3A36",
"x  c #3D3C3D",
"c  c #422800",
"v  c #453C00",
"b  c #443905",
"n  c #4A3C01",
"m  c #483B17",
"M  c #4D3E2B",
"N  c #403D32",
"B  c #4C4301",
"V  c #4F430F",
"C  c #554402",
"Z  c #524707",
"A  c #5B4C04",
"S  c #5C5405",
"D  c #575109",
"F  c #4D4713",
"G  c #4D4815",
"H  c #574D13",
"J  c #57531A",
"K  c #615C01",
"L  c #675A07",
"P  c #635D13",
"I  c #6E6302",
"U  c #746704",
"Y  c #7F720A",
"T  c #686716",
"R  c #76691A",
"E  c #78721A",
"W  c #4D4A2C",
"Q  c #5A502E",
"!  c #43433D",
"~  c #484738",
"^  c #595437",
"/  c #60593F",
"(  c #67642B",
")  c #756E20",
"_  c #746B28",
"`  c #7A7525",
"'  c #7B773B",
"]  c #3C3545",
"[  c #3D3B42",
"{  c #453F4B",
"}  c #434142",
"|  c #494643",
" . c #514C43",
".. c #595648",
"X. c #555356",
"o. c #767249",
"O. c #6E6A52",
"+. c #616061",
"@. c #75746D",
"#. c #726F71",
"$. c #827210",
"%. c #877B28",
"&. c #847E48",
"*. c #857F5A",
"=. c #938914",
"-. c #A49E16",
";. c #8A812B",
":. c #92842B",
">. c #978D3D",
",. c #9B8D3D",
"<. c #9C903E",
"1. c #AA9529",
"2. c #B29D32",
"3. c #BAA728",
"4. c #B5A92C",
"5. c #BBA831",
"6. c #E1CF3F",
"7. c #E7DE3E",
"8. c #F4DE37",
"9. c #EFE224",
"0. c #F8E62B",
"q. c #FAEA2F",
"w. c #EEE139",
"e. c #F5E335",
"r. c #FCE534",
"t. c #F6EA34",
"y. c #FDEA35",
"u. c #F5E43B",
"i. c #FDE63B",
"p. c #F6EA3C",
"a. c #FDEA3C",
"s. c #FCF137",
"d. c #8A854A",
"f. c #978C47",
"g. c #9E934D",
"h. c #8A8450",
"j. c #938A59",
"k. c #A89844",
"l. c #A69B5C",
"z. c #A9A448",
"x. c #BCA944",
"c. c #AFA558",
"v. c #B5A75A",
"b. c #8F8561",
"n. c #92886F",
"m. c #A69B68",
"M. c #ABA863",
"N. c #B4AB65",
"B. c #C5B749",
"V. c #C5BB66",
"C. c #CBC54C",
"Z. c #D7C857",
"A. c #D9CD50",
"S. c #EAD94B",
"D. c #F7DE48",
"F. c #EBDC53",
"G. c #E4DB5D",
"H. c #F6DF52",
"J. c #EFE14C",
"K. c #F4E445",
"L. c #FDE643",
"P. c #F5E944",
"I. c #FDEA43",
"U. c #F5E54A",
"Y. c #FDE54B",
"T. c #F5EA49",
"R. c #FCEB4B",
"E. c #FFF144",
"W. c #FEF04A",
"Q. c #EEE255",
"!. c #EBE15B",
"~. c #F3E454",
"^. c #FBE454",
"/. c #F3E955",
"(. c #FDEB54",
"). c #F5E559",
"_. c #FBE55A",
"`. c #F5EB5C",
"'. c #FCEB5B",
"]. c #FEF252",
"[. c #FFF45D",
"{. c #D6CB69",
"}. c #DDD266",
"|. c #C7C273",
" X c #D8CC79",
".X c #DAD476",
"XX c #EDCF6F",
"oX c #E7DA65",
"OX c #E7DE79",
"+X c #ECE263",
"@X c #EBE16B",
"#X c #EDE86A",
"$X c #F3E362",
"%X c #FAE664",
"&X c #F6EC64",
"*X c #FCEC63",
"=X c #F4E46C",
"-X c #FDE56C",
";X c #F5EB6C",
":X c #FBEC6B",
">X c #FDF265",
",X c #FAF46C",
"<X c #E8E174",
"1X c #EEE57A",
"2X c #F6E475",
"3X c #F4EC75",
"4X c #FDEC73",
"5X c #F3EB7B",
"6X c #FBED7A",
"7X c #FAF37A",
"8X c #A29B91",
"9X c #A7A597",
"0X c #D1C789",
"qX c #E8DD86",
"wX c #EBE389",
"eX c #F9EB84",
"rX c #F9F283",
"tX c #FAF28B",
"yX c #EEE795",
"uX c #F3E995",
"iX c #F8F29A",
/* pixels */
"                                        : , , , > > > , O ,                                       ",
"                                      1   X               f                                       ",
"                                      h $ . $ $ $ . o . o  .                                      ",
"                          a l x ! | ..o.h.f.f.f.f.g.f.g.h.o.^ z <                                 ",
"                          f       . . F yXtX=X4X-X2X2XeXuX_ o .     o ,                           ",
"                          h . . . . $ B 1X:X_.'.^.'.^.$X6XU $ $ . . . r                           ",
"                    < a z ^ J Z L K S =.F.'.Y.D.^.D._.'.*X-.I L D D G d                           ",
"                    t . $ m.qXtX@X3X!.>XU.Y.L.L.L.Y.Y.K.(.Q.:X@X5X1X|.t 0 $ a                     ",
"                    8 . @ c.6X*X)._.).(.R.I.a.i.i.i.i.a.I.R./.`.&X+X3X&.3 . 4                     ",
"                  a M 6 n x.%XR.L.Y.Y.I.L.a.y.y.y.y.y.y.a.I.R.R.U.'.&XC.v 0 u                     ",
"            + < $ u j.qXoXS.R.I.i.L.L.L.i.a.y.y.y.y.y.y.y.a.a.a.I.P.).>XG.{.W u * 8               ",
"            + . @ 5  X=X(.I.I.8.i.i.i.i.a.a.a.a.a.y.y.y.y.y.y.y.i.L.K.U./.;X.Xe $ .               ",
"            t % $ q {.*XP.I.a.i.a.i.i.i.i.a.a.I.I.I.a.a.y.y.i.i.i.W.i.I.R./.G.B $ $ X             ",
"      + g y Q *.N.B.+X(.u.a.a.a.i.i.a.y.y.i.a.I.I.I.I.a.y.y.y.i.a.i.i.E.R.U.'.B.v.j.~ N k         ",
"      a . . b wX3X>XK.R.I.R.u.i.I.I.i.y.y.y.i.L.Y.Y.Y.a.y.y.a.L.I.y.y.i.8.Y.).:X5XyX_   .         ",
"      a . . v oX/.P.p.R.u.I.I.L.I.I.I.y.y.y.a.L.Y.Y.Y.L.a.a.a.I.I.y.y.i.L.].K.`.&X1XP o . +       ",
"      a   . B +XR.I.i.a.i.I.I.I.L.L.L.I.i.a.R.Y.Y.L.L.L.P.R.R.L.L.i.R.i.I.I.R.R._.=XR .   1       ",
"      a   . v !.a.i.i.i.i.I.I.I.i.i.L.L.I.a.R.Y.Y.Y.Y.R.P.u.L.I.i.i.u.u.a.a.u.L.'.-XL @ . d       ",
"      h o $ v Q.a.i.i.i.i.L.I.a.i.y.a.L.I.e.I.(.'.(.L.u.I.I.L.i.r.y.r.s.q.q.y.I.^.6XL @ @ l       ",
"  + < O.F B Y ~.u.y.i.i.i.L.I.I.y.0.y.i.I.a.K.5.5.3.S.P.I.R.I.I.y.y.t.s.9.0.q.y.Y.%X:.C m  .      ",
"h   & ( qX3XF.I.a.a.a.I.I.I.a.a.y.y.y.I.I.W.C.c # 2 x.*XI.L.L.L.a.P.P.a.y.y.q.0.y.I.J.:XwX&.&   p ",
"k   X T 6X).].I.y.a.a.I.I.a.a.a.a.y.y.a.u.(.Z.6 # # V.%XK.Y.Y.I.U./.>X).R.e.r.q.q.y.p.T.,X>.$   ; ",
"k   o E 4XD.L.e.r.a.a.I.I.i.y.y.a.r.y.R.Y.(.Z.6 # % v.`.R.Y.K.Y.H.Z.{.Z.*XD.i.y.e.a.R.P.*X<.. . i ",
"z   X R =X'.L.L.I.a.a.I.I.i.i.y.a.I.I.L.Y.'.Z.5 @ $ v.&XT.K.(.(.3.q 5 C oX'.L.a.y.I.R.R.`.k..   ; ",
"l X X ` 2X-X^.Y.a.y.y.a.L.i.i.y.a.R.U.K.(.>X}.= . $ c.;XU.Y.Y.'.1.# # 7 XX_.Y.i.t.a.u.W.%X,.@   i ",
"l     _ eX-XH.Y.R.y.y.a.I.i.y.y.a.P.[._.$XOXV.w   & M.tX$X).'.*X1.@ # c XX_.L.i.a.I.I.W.&X,.$   : ",
"k   . R 6X_.Y.I.e.I.I.I.a.y.y.y.a.I.'.B.A H Q 8X9X9X^ V C 2.*X^.6.4.4.3.'.Y.L.a.a.a.I.T.;X,..   : ",
"k X . T 3X/.R.E.a.I.L.I.a.y.y.y.a.I.).x.# @ 8 #.+.@.j . @ %.:XU.R.R.W.I.I.i.I.I.i.u.K.).rXg.$ X i ",
"k   o T 7X,X7.p.y.Y.Y.L.y.y.y.y.I.L.*Xk.% . s X.x X.!   @ %.=X(.8.u.e.a.I.E.i.u.I.R.'.5XyXh.$   , ",
"f }  .' ` =.-.P.u.Y.Y.L.y.y.y.y.I.L.:Xc.%   a < + 1 [   . ;.:X(.I.a.y.a.u.a.u.u.L.U.5.%.' *.z a   ",
"      z o o B F.I.L.L.y.y.y.a.a.I.(.4Xc.. o 1 +   + x + . %.4XU.L.i.I.R.u.u.I.I.K._.U @ . ..      ",
"      f   . n $XI.I.i.y.y.a.a.a.I.K.4Xl.$ . 9 + X + [   . ;.;X^.L.L.L.i.I.a.i.L.(.%XI % . !       ",
"      f   . Z $XI.I.y.y.y.i.L.i.R.'.=Xc.@ $ * +   + {   @ ;.4X^.L.L.I.i.i.a.u.(.).;XI . . !       ",
"      f . @ b oXR.w.I.y.r.I.L.L.Y.~.6Xc.$ . 8       ] . . >.=X'.P.I.u.i.I.e.i.U.:X3XK o   !       ",
"      a   @ b <X`.).R.I.a.W.L.Y.(.`.3Xv.@ . <       ] . . ;.@X`.P.I.u.L.I.i.E.U.&X5XP & O x       ",
"      + - @ Q  XoXG.`.R.P.u.R.(.S.oX.Xl.3 $ !       X.+ = d.OX}.Q.u.R.Y.u.y.I.F.}..X( - ; a       ",
"          + h e 0 C Z.*X].w.R.^.=.e 0 ^ 1               , O.0 e I ~.R.I.u.s.7.K q 0 O.-           ",
"            < . $ 3 {.+X`.T.T.*X$.. $ |                   @.. . A $XU.T.R.P.!.e $ . x             ",
"            , $ . w |.tX#X`.Q.6XR $   }                   }     J #XU.'.`.;X.Xm .   f             ",
"              a d ~ ( D K C.;XeX%..   x                   l .   H #X`.A.U K J n.| s               ",
"                  + * $ . z.rXeX) o   !                   f   X H <X6XV.5 $ $ f                   ",
"                  + 8   o N.wXiX' X   z                   <   o J yXuX0X$ . . <                   ",
"                  X } X...&.j.d.o.! l                       a h ..b.j.b./  .}                     ",
"                        X W o $ h                               < . . y +                         ",
"                        X ~ o   ,                                 . . g                           ",
"                          ! & r +                                 s 1 l                           "
};
