/* XPM */
static char *d4f9df59e9c7448ed7c43131754ba8e1fXR9Eor6RVuAZRUu[] = {
/* columns rows colors chars-per-pixel */
"50 50 218 2 ",
"   c None",
".  c #4C0F13",
"X  c #451415",
"o  c #55131A",
"O  c #5C141D",
"+  c #5A191C",
"@  c #561B1C",
"#  c #60141F",
"$  c #57201B",
"%  c #5F1720",
"&  c #631621",
"*  c #651923",
"=  c #6B1A26",
"-  c #6E1C29",
";  c #731C26",
":  c #731D2A",
">  c #7C1E2B",
",  c #7F1E27",
"<  c #582825",
"1  c #5C3133",
"2  c #6C2A29",
"3  c #75222B",
"4  c #7C232D",
"5  c #762C2C",
"6  c #68372C",
"7  c #7D2131",
"8  c #7D2E33",
"9  c #65353D",
"0  c #6C343D",
"q  c #673832",
"w  c #7B3737",
"e  c #734737",
"r  c #78503D",
"t  c #593C42",
"y  c #6E3A44",
"u  c #683841",
"i  c #763642",
"p  c #783745",
"a  c #7A3947",
"s  c #7C3A48",
"d  c #723C47",
"f  c #5C484B",
"g  c #574C51",
"h  c #54565B",
"j  c #5A595F",
"k  c #59585A",
"l  c #4C4C4F",
"z  c #77424D",
"x  c #7D5440",
"c  c #6B4B53",
"v  c #724C56",
"b  c #754F59",
"n  c #7C4955",
"m  c #6C555D",
"M  c #6A565B",
"N  c #79525C",
"B  c #75515B",
"V  c #674546",
"C  c #5B5D63",
"Z  c #565A61",
"A  c #655E65",
"S  c #6A5A62",
"D  c #735B63",
"F  c #785F68",
"G  c #765963",
"H  c #5D6067",
"J  c #5E636A",
"K  c #626066",
"L  c #62646B",
"P  c #6D646C",
"I  c #66656B",
"U  c #70676E",
"Y  c #706060",
"T  c #646B72",
"R  c #696A73",
"E  c #756C74",
"W  c #756B75",
"Q  c #6F7A7F",
"!  c #801F2A",
"~  c #84222C",
"^  c #8A242C",
"/  c #84282F",
"(  c #93262E",
")  c #852335",
"_  c #8B2536",
"`  c #8C2638",
"'  c #862D3B",
"]  c #8B2A3A",
"[  c #882934",
"{  c #932635",
"}  c #942936",
"|  c #9B2B35",
" . c #922739",
".. c #94293B",
"X. c #9B2B3D",
"o. c #982738",
"O. c #8C3335",
"+. c #8A313E",
"@. c #883739",
"#. c #923233",
"$. c #9D3135",
"%. c #913339",
"&. c #9B333C",
"*. c #99383D",
"=. c #A32C3D",
"-. c #A92D3E",
";. c #A32936",
":. c #A3343C",
">. c #AA363E",
",. c #9E2E40",
"<. c #8D3342",
"1. c #853B48",
"2. c #953443",
"3. c #9C3243",
"4. c #933A49",
"5. c #A42E41",
"6. c #AC2E41",
"7. c #B12F41",
"8. c #A53344",
"9. c #AC3244",
"0. c #AB3A4D",
"q. c #AA3846",
"w. c #B23246",
"e. c #B43549",
"r. c #BB364B",
"t. c #B23C4C",
"y. c #BA394C",
"u. c #B73746",
"i. c #B23D50",
"p. c #C2394E",
"a. c #C63B50",
"s. c #C93C50",
"d. c #825A44",
"f. c #894351",
"g. c #81555F",
"h. c #876449",
"j. c #8A664A",
"k. c #8D6B4E",
"l. c #856047",
"z. c #8C6E51",
"x. c #956D59",
"c. c #9C6F5A",
"v. c #946C55",
"b. c #937453",
"n. c #967956",
"m. c #987B57",
"M. c #9E705B",
"N. c #997B59",
"B. c #93765B",
"V. c #8E7151",
"C. c #A0705C",
"Z. c #A06F5B",
"A. c #947864",
"S. c #8C716C",
"D. c #9E815E",
"F. c #9E8462",
"G. c #9E886F",
"H. c #9D8A73",
"J. c #A28664",
"K. c #A58B6B",
"L. c #A88E6E",
"P. c #A28967",
"I. c #AA916F",
"U. c #A68D72",
"Y. c #A98B75",
"T. c #AC8B7A",
"R. c #A58777",
"E. c #B08E7C",
"W. c #AA9275",
"Q. c #AB9378",
"!. c #AE9A7D",
"~. c #B1997B",
"^. c #748186",
"/. c #818C93",
"(. c #AD9B83",
"). c #AE9C89",
"_. c #B29E85",
"`. c #B19F88",
"'. c #B4A087",
"]. c #B5A38C",
"[. c #B9A58D",
"{. c #B8A183",
"}. c #B6A591",
"|. c #BAA791",
" X c #B7A891",
".X c #BCA994",
"XX c #BEAD99",
"oX c #B6A99E",
"OX c #BFB097",
"+X c #939CA4",
"@X c #BFB1A5",
"#X c #BAADA8",
"$X c #C1AC96",
"%X c #C0AF9B",
"&X c #C3B29E",
"*X c #C6B49C",
"=X c #C5B5A2",
"-X c #C8B6A4",
";X c #C7B8A2",
":X c #CAB9A6",
">X c #C4B5AA",
",X c #CCBBA9",
"<X c #CDBDAA",
"1X c #CFBEAD",
"2X c #CBBBAA",
"3X c #C7B8AE",
"4X c #D0BFAE",
"5X c #D0BFAE",
"6X c #CDBEB2",
"7X c #D0BFB0",
"8X c #CEC1AE",
"9X c #D0C1AE",
"0X c #D0C4AF",
"qX c #CFC1B5",
"wX c #D5C6B5",
"eX c #D3C3B4",
"rX c #DBCABA",
"tX c #D6C7B8",
/* pixels */
"                                                                                                    ",
"                                        wXwXwXeXeXeX9X9X9X8X8X                                      ",
"                              9X9X9X9X5X5X5X1X1X<X<X,X,X:X-X=X=X=X=X;X                              ",
"                          ,X,X,X,X,X<X<X<X,X:X:X-X-X=X=X=X=X=X=X&X%XXXXXOX|.                        ",
"                    rXwX$X.X-X:X-X&X.X].~.!.W.W.L.L.L.L.I.Q._.[..XXXXXXX[._.1XtX                    ",
"                  rXwXwX5X_.[._.W.K.F.b.j.x e e q q q e x l.b.D.K.Q._.[.!.*X5X9XeXtX                ",
"              wXwXeXeXeX=X~.D.D.V.r 6 @ @ o o % o . O O % + @ < e h.N.J.K..X,X1X1X9XeX              ",
"            eXeXeXeX5X.XW.J.j.6 X . O & * & & = & o * = = * & O . X 6 d.N.J.~.&X<X<X<X9X            ",
"          9X1X1X5X-X_.P.b.6 o o X + - : 3 : > 7 4 ; 7 ) ) 7 : : * X + & 2 l.D.L..X:X,X,X<X0X        ",
"        <X,X,X<X$XW.D.d.$ o * - @ * ) ) ) > > ) 7 ; ) ) ) ) _ ) ) + & = & + e N.P._.=X:X-X:X8X      ",
"      ;X:X:X:X.XK.N.r + & : 7 ) % : _ ) ) > ~ _ 4 : _ ` ) [ ] ) ) * : 7 : = + 6 b.J._.=X=X=X;X      ",
"    %X=X=X-X.XP.D.r + - 7 ) ) ) * 7 _ _ ) ! ) ` 4 ; ` _ ) ] ` _ ) = 7 ) ) 7 : O 6 b.P.'.&X&X&X*X    ",
"    |.&X=X%XW.D.d.+ - ) ) _ ` _ = ) ` ` ) ~ _ ` 4 ; ` ) ] ` ` ` ` : ) ) ) ) ) : O 6 N.P.].XXXXXXOX  ",
"  '..X&X%XQ.m.k.2 ; ) ` _ ` ` ` ; ) ` ` ) ) ` ` ! > _ ` ` ` ` ` ` , ) ) _ _ _ ) ; + k.P.Q.XX%XXX].  ",
"  =X5XeX$XJ.V.h.q 0 a p a s s a 0 a s s p p a a i 0 s s s s s s a 0 i i p p i i 0 < x.K._.,XwX*X!.  ",
"  &X&X_.K.D.b.k.g h C C H H H H J H C J L L J J H C H H H H H C Z C C C Z h h h h l A.K._.&X[.I.P.  ",
"  `.U.F.F.D.b.k.1 9 y y y y y y 9 y y y y y y y 9 9 d y y y y y u 9 9 y y u u 9 9 1 x.U.(.!.F.F.F.  ",
"  (.(.(.(.Q.b.k.2 )  . .`  . . .~  ... ._  ...` ~ ~  . ....... . ., [  . .` ` ` ` 3 x.U.(.(.(._._.  ",
"  (._._._.!.n.k.5 _ .. . ... ...~  ... . . .X. .^ ~ ..X...........~ ` .... .`  .` 3 x.U.(._._._.].  ",
"  (._._._.!.n.k.8 `  . .........~ ..X... ...X.X.^ ~ X.X.X.....X.X.~  ..... . ...` 3 x.U.(._._.].[.  ",
"  (._._._._.m.k.8 _  .......X.X.~ ..X.X.....X.3._ ~ X.X.X...X.X.X.~  .X... .....` 4 x.U.(._._.].}.  ",
"  (._._.]._.m.k.8 ` X.X.X.X.X..., ..X.X.X.X.X.,.{ ^ X.X.X.X.X.X.X.~ ..X.....X... .4 x.U._.].].].}.  ",
"  ).'.].]._.N.k.8  .X.X.X.,.X. .~ X.X.X.X.X.X.X...~ X.X.,.,.X.,.X.~ X.X.X...X... .3 x.U.`.].].].|.  ",
"  `.].].].'.N.k.8  .X.X.X.X.} o.~ X.5.X.5.X.1.N G m G f.3.5.5.,.} ! X.X.X.X.X.X...3 x.Q.'.].].[.|.  ",
"  '.].].].'.N.k.8 ..X.X.X.X.o.o.^ X.5.5.3.N R R A j I T D 4.5.X.X.~ X.X.X.X.X.X.X./ x.Q.'.].].[.|.  ",
"  '.].].[.].N.k.5 ..5.X.X.o.X.X.^ } 5.5.N J A n g.N z m J m 2.X.X.^ X.X.X.5.5.X.X.[ x.Q.].].].[.|.  ",
"  ].].].[.].m.z.V c b b b b b B v B N G R R z S.+X/.U 1.A T D b b c v b b b v v c V A.Q.].[.[.|.|.  ",
"  ].[.[.[.].m.z.k j C C K K L L L C C I T R f.E ^.Q L 1.D T L H j C C C C C j h h g A.Q.[.[.[.|.XX  ",
"  ].[.[.|.].N.k.w ' ' ' ' +.<.<.8 +.<.<.S J B z g g u n L K 1.+.<.8 ' <.<.<.<.+.' 8 x.Q.[.[.[.|.XX  ",
"  [.[.|.|.].N.k.O.X.=.=.=.5.8.9.( =.9.5.4.A T S f t M I H z =.5.9.{ ;.5.8.8.5.=.=.[ x.Q.[.|.|.|.XX  ",
"  [.|.|.|.[.N.k.O.X.=.=.=.8.9.9.^ =.9.8.8.4.v K H C L M 1.=.-.9.9.{ =.5.8.8.5.=.=.{ c.Q.[.|.|..XXX  ",
"  }.|.|.|.[.N.k.O.X.=.=.8.9.8.9.{ =.9.9.9.w.8.3.' w 2.X.-.-.5.9.9.^ =.9.9.9.5.5.5.X.c.Q.}.|.|..XXX  ",
"  }.|.|..X[.N.k.O.=.5.5.9.8.9.9.| ;.w.e.9.e.e.w.-.;.9.5.5.-.9.e.9.( -.9.9.9.5.5.5.X.C.Q.}.|.|..X%X  ",
"  |.|.|..X[.N.k.O.=.5.8.9.8.9.w.| ;.w.e.w.e.e.e.9.=.9.6.6.5.w.e.w.| -.w.w.8.5.5.5.X.Z.Q.}..X.X.X%X  ",
"  |..X.X.X[.N.k.%.=.8.9.9.w.w.w.| ;.9.e.e.e.e.e.9.| 6.6.6.9.e.e.w.| -.w.e.8.5.5.8.X.C.Q.}..X.X.X&X  ",
"  |..X.X.X[.N.k.%.=.9.w.9.e.e.e.| ;.9.e.e.e.r.r.9.( 6.7.7.w.e.e.e.| =.e.e.9.6.5.9.&.C.Q.}..X.X.X&X  ",
"  |..X.X.X[.N.k.O.5.w.w.w.e.e.e.| ;.7.r.r.r.r.r.9.( w.7.w.r.r.e.e.=.-.e.e.9.6.6.9.X.c.Q.}..X.XXX&X  ",
"  |..X.X.X[.N.k.@.8.0.0.0.0.0.0.%.3.q.t.t.t.i.i.q.%.q.q.0.i.t.0.0.&.8.0.0.8.8.8.q.2.M.Q.}..X.XXX&X  ",
"  |..X.X.X[.m.z.Y P P U W W W W E U P W W W W W E P E E E E E U I P P P P P P A K M A.W.[..X.X$X&X  ",
"  .X.X.XXX[.m.z.M D m D D D D D S m D F F F F F S M D D D D D D m m D D m m m c M c A.Q.[..X.X$X&X  ",
"  XX.X.X$X[.m.k.%.8.8.8.9.8.e.9.4 X.9.e.e.e.y.y.&./ w.9.e.e.e.e.e.| 8.e.9.5.5.8.8.X.M.Q.[..X.X$X&X  ",
"  XX.X.X$X[.n.j.*.9.w.e.e.e.r.e.4 -.u.p.p.p.p.a.:./ r.r.p.p.r.p.p.| 9.y.w.w.w.w.e.:.C.Q.[..X.X$X&X  ",
"  XXXX.X$X[.n.j.*.9.w.e.e.r.y.e.4 -.r.p.p.p.a.a.:./ r.p.a.p.r.p.p.} 9.y.e.w.w.w.e.:.C.Q.[..X.X$X&X  ",
"  =X=X=X-X[.n.j.*.9.w.r.e.r.r.e.3 -.r.p.p.p.p.s.&.4 r.p.a.p.r.p.p.[ 9.r.w.w.w.w.w.X.Z.Q.[.&X&X-X=X  ",
"  ,XeXwX:XQ.n.j.O.| :.:.:.:.:.$.2 *.q.q.>.>.>.q.%.5 >.t.y.t.u.t.q./ #.>.$.$.$.$.:.#.M.Q.[.5XwX5X|.  ",
"  =X,X*X~.J.n.B.R.R.R.T.T.T.T.T.R.T.E.E.T.E.E.E.T.T.T.E.E.E.E.E.T.T.T.T.T.T.Y.Y.Y.R.U.Q.].-X:X{.K.  ",
"  XX_.P.F.F.G.).[.}. X X X|.|.|.|.|.|.|.|.|.|.|.|.|.|.|.|.|.|.|.|.|. X X}.}.[.[.[.].].(.'.[.L.F.F.  ",
"          ).oX:X:X:X:X,X,X,X,X,X,X,X,X,X,X,X,X,X,X:X:X:X-X=X=X=X=X&X&X&X&X&X&X&X&X&X&X%X}.H.        ",
"          #X3XeXwXwXtXrXrXrXrXrXrXrXrXrXrXrXrXrXrXtXwXwXwXeXeXeXeXeX7X5X1X1X1X1X<X<X,X=XoX          ",
"                  3X6XqXeXqXqXqXeXeXeXtXtXtXeXeXeX6X6X6X3X3X3X>X>X@X@X@X@X>X>X>X=X                  "
};
