/* XPM */
static char *_f8e8eecc3b74f9fea1444a54cba3ed5Bea2jM5VfBbytoxA[] = {
/* columns rows colors chars-per-pixel */
"50 50 251 2 ",
"   c black",
".  c #41100F",
"X  c #501818",
"o  c #420F10",
"O  c #4E1515",
"+  c #451111",
"@  c #4B1414",
"#  c #3F0F0F",
"$  c #431111",
"%  c #4A1313",
"&  c #430F10",
"*  c #411215",
"=  c #EE2922",
"-  c #EE2923",
";  c #EF2923",
":  c #ED2926",
">  c #EE2926",
",  c #E82A2A",
"<  c #EE2828",
"1  c #EE2825",
"2  c #EF2825",
"3  c #E12C28",
"4  c #451312",
"5  c #6E1816",
"6  c #6D1615",
"7  c #6F1817",
"8  c #6D1715",
"9  c #6C1814",
"0  c #EC2A26",
"q  c #EC2925",
"w  c #711618",
"e  c #6E1616",
"r  c #A52327",
"t  c #EE2925",
"y  c #EE2924",
"u  c #EF2728",
"i  c #ED2A27",
"p  c #EE2824",
"a  c #EF2925",
"s  c #A12624",
"d  c #A02524",
"f  c #6B1412",
"g  c #F02826",
"h  c #F02726",
"j  c #EE2927",
"k  c #ED2925",
"l  c #F02825",
"z  c #6F1212",
"x  c #EB2A25",
"c  c #EF2827",
"v  c #EF2826",
"b  c #EF2828",
"n  c #030202",
"m  c #110A0A",
"M  c #160C0C",
"N  c #7A1413",
"B  c #EE2827",
"V  c #EE2826",
"C  c #ED2825",
"Z  c #EF2725",
"A  c #E84644",
"S  c #E94645",
"D  c #EB4643",
"F  c #EA4643",
"G  c #E94644",
"H  c #E93A33",
"J  c #EB2F2E",
"K  c #EB4543",
"L  c #EC4444",
"P  c #0F0909",
"I  c #190E0E",
"U  c #140B0B",
"Y  c #2C0B0B",
"T  c #EF2823",
"R  c #EA2424",
"E  c #FBFFFF",
"W  c #FDFFFF",
"Q  c white",
"!  c #F2A7A4",
"~  c #F02727",
"^  c #E05F60",
"/  c #FEFFFE",
"(  c #F12825",
")  c #EA2A28",
"_  c #2C0B0A",
"`  c #ED2924",
"'  c #E82522",
"]  c #FFFEFF",
"[  c #FEFFFF",
"{  c #FEFFFD",
"}  c #F02824",
"|  c #E0615C",
" . c #EC2926",
".. c #F12823",
"X. c #E34C4B",
"o. c #E05A58",
"O. c #DF5B56",
"+. c #DD5856",
"@. c #FEFEFE",
"#. c #EEBDBD",
"$. c #E05958",
"%. c #E53E3D",
"&. c #EC2827",
"*. c #E05A59",
"=. c #DF5A58",
"-. c #DC8482",
";. c #FEFDFE",
":. c #DE5B59",
">. c #DD5B59",
",. c #2D0C0B",
"<. c #EEC0BC",
"1. c #FFFDFD",
"2. c #FFFEFE",
"3. c #ED8D8B",
"4. c #E72624",
"5. c #FFFDFC",
"6. c #FFFEFD",
"7. c #EEC2BE",
"8. c #EE8E8C",
"9. c #FEFEFF",
"0. c #FFFDFE",
"q. c #EF8E8C",
"w. c #FDFDFE",
"e. c #FDFFFE",
"r. c #3C60B0",
"t. c #3F5FAD",
"y. c #973D65",
"u. c #3E60AC",
"i. c #3F5FAE",
"p. c #405FAA",
"a. c #3E60AF",
"s. c #3E5FAE",
"d. c #EF2824",
"f. c #3E60AD",
"g. c #3F5FAC",
"h. c #2D0B0C",
"j. c #3E5FAF",
"k. c #973E65",
"l. c #3F60AF",
"z. c #E52C2B",
"x. c #445DA9",
"c. c #EF2926",
"v. c #E52D2B",
"b. c #E22C2A",
"n. c #F12724",
"m. c #EFBFBC",
"M. c #FEFCFB",
"N. c #FFFAFB",
"B. c #FFFCFF",
"V. c #FFFFFE",
"C. c #FCFFFF",
"Z. c #415EAA",
"A. c #425EAA",
"S. c #455DA6",
"D. c #475CA5",
"F. c #485BA5",
"G. c #9D3D63",
"H. c #F22725",
"J. c #E6252B",
"K. c #FEFBFB",
"L. c #FEFBFA",
"P. c #FDFDF8",
"I. c #3E60A8",
"U. c #4060A9",
"Y. c #405FAB",
"T. c #4D5AA1",
"R. c #EF2821",
"E. c #F02729",
"W. c #E32C2B",
"Q. c #E92425",
"!. c #F2A9A2",
"~. c #EC2A24",
"^. c #F12726",
"/. c #E3605C",
"(. c #FFFFFA",
"). c #ED2923",
"_. c #E92423",
"`. c #FEFFFB",
"'. c #FFFFFD",
"]. c #FFFEFC",
"[. c #F1A7A7",
"{. c #ED2A23",
"}. c #EC2927",
"|. c #E35F5D",
" X c #E12C2A",
".X c #E82424",
"XX c #F4A6A4",
"oX c #E25F61",
"OX c #E22B2A",
"+X c #EB2A2A",
"@X c #E92A26",
"#X c #EA2A27",
"$X c #EA2B24",
"%X c #EA2A26",
"&X c #E62C28",
"*X c #ED2828",
"=X c #DF2A29",
"-X c #E12B2A",
";X c #E02B2A",
":X c #DF2B2A",
">X c #E22C2B",
",X c #EF2920",
"<X c #ED2927",
"1X c #EC2825",
"2X c #E12B29",
"3X c #6F1719",
"4X c #A02525",
"5X c #F22624",
"6X c #7D211E",
"7X c #F12725",
"8X c #6E1819",
"9X c #9F2626",
"0X c #832121",
"qX c #F02823",
"wX c #6F1618",
"eX c #A02523",
"rX c #832120",
"tX c #F22726",
"yX c #E42C2B",
"uX c #9E2622",
"iX c #ED2A25",
"pX c #EF2924",
"aX c #9F2624",
"sX c #A02623",
"dX c #822020",
"fX c #9F2623",
"gX c #DF2B2B",
"hX c #EF2726",
"jX c #A12628",
"kX c #EC2B23",
"lX c #801F20",
"zX c #F22825",
"xX c #9C2627",
"cX c #F02723",
"vX c #5A1718",
"bX c #6C1515",
"nX c #6C1512",
"mX c #4A1518",
"MX c #6E1716",
"NX c #6E1717",
"BX c #6E1817",
"VX c #6D1514",
"CX c #36100F",
"ZX c #6F1818",
"AX c #6E1515",
"SX c #6F1717",
"DX c #6D1716",
"FX c #491014",
"GX c #6C1714",
"HX c #6C1817",
"JX c #6D1713",
/* pixels */
"                                                                                                    ",
"                                                                                                    ",
"                                                                                                    ",
"                                        . X o O + + @ # $ % & *                                     ",
"                                        = - ; : : > > > > : : ,                                     ",
"                                        < 1 1 1 1 2 2 2 2 1 1 3                                     ",
"                          4 5 6 6 7 8 9 0 1 1 1 1 1 1 1 1 1 1 q w 6 5 5 8 e                         ",
"                          r t > t y t u 2 1 1 1 1 1 1 1 1 1 1 i - p t p p a                         ",
"                          s 1 1 1 1 1 1 1 1 1 1 1 1 1 1 1 1 1 1 1 1 1 1 1 2                         ",
"                          d 1 1 1 1 1 1 1 1 1 1 1 1 1 1 1 1 1 1 1 1 1 1 1 1                         ",
"                    f g - h 1 1 1 1 1 1 1 1 1 1 1 1 1 1 1 1 1 1 1 1 1 1 1 1 j k l                   ",
"                    z x c x 1 1 1 1 1 1 1 1 1 1 1 1 1 1 1 1 1 1 1 1 1 1 1 1 v b 2                   ",
"              n m M N B V 1 k C Z A S D F G H 1 1 1 1 1 1 1 1 1 1 B J K D D D D L P I U             ",
"              Y v > T b k 1 2 > R E W Q Q W ! 1 1 1 1 1 1 1 1 > V ~ ^ Q Q Q Q Q / ( g )             ",
"              _ 1 1 1 1 - j 2 ` ' ] [ Q Q { ! } l v 1 1 1 1 1 k y t | Q Q Q Q Q ] h }  .            ",
"              Y 1 1 1 1 ..X.o.O.+.@.Q Q Q { #.$.$.%.} 1 1 1 1 &.*.=.-.Q Q Q Q Q ;.:.$.>.            ",
"              ,.1 1 1 1 y <.1.1.1.Q Q Q Q Q 2.1.1.3.2 1 1 1 1 4.5.1.6.Q Q Q Q Q Q 1.1.1.            ",
"              ,.1 1 1 1 y 7.Q Q Q Q Q Q Q Q Q Q Q 8.l 1 1 1 1 4.Q Q Q Q Q Q Q Q Q Q Q Q             ",
"              Y 1 1 1 1 y 7.Q Q Q Q Q 9.0./ / / / q.c 1 1 1 1 4.Q Q Q Q Q Q w.W / / / e.            ",
"              _ 1 1 1 1 y 7.Q Q Q Q Q E r.t.t.t.t.y.2 1 1 1 1 4.Q Q Q Q Q Q u.i.t.t.t.p.            ",
"              Y 1 1 1 1 y 7.Q Q Q Q Q W a.s.s.s.s.y.d.1 1 1 1 4.Q Q Q Q Q Q a.f.s.s.s.g.            ",
"              h.1 1 1 1 y 7.Q Q Q Q Q W j.s.s.s.s.k.d.2 1 1 1 4.Q Q Q Q Q Q l.f.s.s.s.g.            ",
"        z.y 1 1 1 1 1 1 y 7.Q Q Q Q Q W j.s.s.s.s.k.d.2 1 1 1 4.Q Q Q Q Q Q l.f.s.s.s.x.- V c.      ",
"        v.t 1 1 1 1 1 1 y 7.Q Q Q Q Q W j.s.s.s.s.k.d.2 1 1 1 4.Q Q Q Q Q Q l.f.s.s.s.x.- B c.      ",
"        b.t 1 1 1 1 1 1 n.m.M.M.N.B.V.C.Z.A.S.D.F.G.H.t 1 1 1 J.K.L.P.Q Q Q I.U.Y.F.D.T.R.E.a       ",
"        W.t 1 1 1 1 1 1 ; d.t > Q.] Q ] V./ !.~.k ~ : v 1 1 1 : t ^./.Q Q Q (.Q C.q d.T ) ).t       ",
"        W.t 1 1 1 1 1 1 : q y y _.Q { `.'.].[.> v {.}.1 1 1 1 v l v |.Q Q Q ] 2.6.d.: : ` b t       ",
"         Xt 1 1 1 1 1 1 1 1 k > .XQ ] Q Q Q XX1 1 1 1 1 1 1 1 1 1 y oXQ Q Q Q Q [ d.1 1 1 1 a       ",
"        OXt 1 1 1 1 1 1 1 1 k > l +X@X#X#X$X}.1 1 1 1 1 1 1 1 1 1 2 > %X#X#X#X#X&X*X1 1 1 1 a       ",
"        =Xt 1 1 1 1 1 1 1 1 1 1 1 1 1 1 1 1 1 1 1 1 1 1 1 1 1 1 1 1 1 1 1 1 1 1 1 1 1 1 1 1 a       ",
"        -Xt 1 1 1 1 1 1 1 1 1 1 1 1 1 1 1 1 1 1 1 1 1 1 1 1 1 1 1 1 1 1 1 1 1 1 1 1 1 1 1 1 a       ",
"        -Xt 1 1 1 1 1 1 1 1 1 1 1 1 1 1 1 1 1 1 1 1 1 1 1 1 1 1 1 1 1 1 1 1 1 1 1 1 1 1 1 1 a       ",
"        ;Xt 1 1 1 1 1 1 1 1 1 1 1 1 1 1 1 1 1 1 1 1 1 1 1 1 1 1 1 1 1 1 1 1 1 1 1 1 1 1 1 1 a       ",
"        -Xt 1 1 1 1 1 1 1 1 1 1 1 1 1 1 1 1 1 1 1 1 1 1 1 1 1 1 1 1 1 1 1 1 1 1 1 1 1 1 1 1 a       ",
"        :Xt 1 1 1 1 1 1 1 1 1 1 1 1 1 1 1 1 1 1 1 1 1 1 1 1 1 1 1 1 1 1 1 1 1 1 1 1 1 1 1 1 a       ",
"        ;Xt 1 1 1 1 1 1 1 1 1 1 1 1 1 1 1 1 1 1 1 1 1 1 1 1 1 1 1 1 1 1 1 1 1 1 1 1 1 1 1 1 a       ",
"        -Xt 1 1 1 1 1 1 1 1 1 1 1 1 1 1 1 1 1 1 1 1 1 1 1 1 1 1 1 1 1 1 1 1 1 1 1 1 1 1 1 1 a       ",
"        ;Xt 1 1 1 1 1 1 1 1 1 1 1 1 1 1 1 1 1 1 1 1 1 1 1 1 1 1 1 1 1 1 1 1 1 1 1 1 1 1 1 1 a       ",
"         Xt 1 1 1 1 1 1 1 1 1 1 1 1 1 1 1 1 1 1 1 1 1 1 1 1 1 1 1 1 1 1 1 1 1 1 1 1 1 1 1 1 a       ",
"        >Xt 1 1 1 1 k ,Xk l 1 1 1 1 1 1 1 } ; c <Xc c 2 1X1 1 1 1 1 1 1 1 1 y } k l 1 1 1 1 a       ",
"        2Xt 1 1 1 1 3X    4X1 1 1 1 1 1 1 5X6X            V 1 1 1 1 1 1 1 2       7X1 1 1 1 a       ",
"        W.t 0 } : : 8X    9X: : : 1 7X1 1 <X0X            1 1 1 1 0 qX: : :       l : : : l t       ",
"        W.t : {.a c.wX    eXa c.c.t 1 1 1 <XrX            1 1 1 1 <X).a c.l       7Xc.c.tXx a       ",
"        yXt ` uX                  iXpX1 1 <XrX            1 1 1 1 1 aX                  V - a       ",
"        OXt t sX                  iXpX1 1 <XdX            1 1 1 1 k fX                  v - a       ",
"        gXhX^.jX                  h B C V kXlX            t 1 k t zXxX                  - ~ cX      ",
"        vXbXnXmX                  MXNXBXNXVXCX            ZXBXAXSXDXFX                  GXHXJX      ",
"                                                                                                    ",
"                                                                                                    ",
"                                                                                                    "
};
