/* XPM */
static char *_6ff8a6ba4a143c19544f864e9165779ze3jA5oEkVeyf9F3[] = {
/* columns rows colors chars-per-pixel */
"46 48 221 2 ",
"   c #000000",
".  c #0B0400",
"X  c #070901",
"o  c #0D0A01",
"O  c #05050A",
"+  c #0C0B0B",
"@  c #130400",
"#  c #1A0400",
"$  c #130B00",
"%  c #1B0D00",
"&  c #161400",
"*  c #1C1606",
"=  c #1D1803",
"-  c #14110C",
";  c #0E0C1A",
":  c #110F19",
">  c #0D1211",
",  c #131314",
"<  c #1B1817",
"1  c #1B1A1A",
"2  c #240B00",
"3  c #231B00",
"4  c #261806",
"5  c #2C1E00",
"6  c #311C00",
"7  c #381E00",
"8  c #221C18",
"9  c #1E2015",
"0  c #2C2401",
"q  c #312300",
"w  c #332D07",
"e  c #3C3201",
"r  c #27251A",
"t  c #25221C",
"y  c #332C1C",
"u  c #3E3719",
"i  c #1A1924",
"p  c #1C1B26",
"a  c #242323",
"s  c #2A2527",
"d  c #2A2924",
"f  c #2C2C2B",
"g  c #322D2A",
"h  c #33322D",
"j  c #3C3928",
"k  c #353535",
"l  c #393737",
"z  c #3C3B35",
"x  c #3D3C3D",
"c  c #422800",
"v  c #453C00",
"b  c #443905",
"n  c #4A3C01",
"m  c #483B17",
"M  c #4D3E2B",
"N  c #403D32",
"B  c #4C4301",
"V  c #4F430F",
"C  c #554402",
"Z  c #524707",
"A  c #5B4C04",
"S  c #5C5405",
"D  c #575109",
"F  c #4D4713",
"G  c #4D4815",
"H  c #574D13",
"J  c #57531A",
"K  c #615C01",
"L  c #675A07",
"P  c #635D13",
"I  c #6E6302",
"U  c #746704",
"Y  c #7F720A",
"T  c #686716",
"R  c #76691A",
"E  c #78721A",
"W  c #4D4A2C",
"Q  c #5A502E",
"!  c #43433D",
"~  c #484738",
"^  c #595437",
"/  c #60593F",
"(  c #67642B",
")  c #756E20",
"_  c #746B28",
"`  c #7A7525",
"'  c #7B773B",
"]  c #3C3545",
"[  c #3D3B42",
"{  c #453F4B",
"}  c #434142",
"|  c #494643",
" . c #514C43",
".. c #595648",
"X. c #555356",
"o. c #767249",
"O. c #6E6A52",
"+. c #616061",
"@. c #716E65",
"#. c #726F71",
"$. c #797974",
"%. c #827210",
"&. c #877B28",
"*. c #847E48",
"=. c #857F5A",
"-. c #938914",
";. c #A49E16",
":. c #8A812B",
">. c #92842B",
",. c #978D3D",
"<. c #9B8D3D",
"1. c #9C903E",
"2. c #AA9529",
"3. c #B29D32",
"4. c #BAA728",
"5. c #B5A92C",
"6. c #BBA831",
"7. c #E1CF3F",
"8. c #E7DE3E",
"9. c #F4DE37",
"0. c #EFE224",
"q. c #F8E62B",
"w. c #FAEA2F",
"e. c #EEE139",
"r. c #F5E335",
"t. c #FCE534",
"y. c #F6EA34",
"u. c #FDEA35",
"i. c #F5E43B",
"p. c #FDE63B",
"a. c #F6EA3C",
"s. c #FDEA3C",
"d. c #FCF137",
"f. c #8A854A",
"g. c #978C47",
"h. c #9E934D",
"j. c #8A8450",
"k. c #938A59",
"l. c #A89844",
"z. c #A69B5C",
"x. c #A9A448",
"c. c #BCA944",
"v. c #AFA558",
"b. c #B5A75A",
"n. c #8F8561",
"m. c #92886F",
"M. c #A69B68",
"N. c #ABA863",
"B. c #B4AB65",
"V. c #C5B749",
"C. c #C5BB66",
"Z. c #CBC54C",
"A. c #D7C857",
"S. c #D9CD50",
"D. c #EAD94B",
"F. c #F7DE48",
"G. c #EBDC53",
"H. c #E4DB5D",
"J. c #F6DF52",
"K. c #F4E445",
"L. c #FDE643",
"P. c #F5E944",
"I. c #FDEA43",
"U. c #F5E54A",
"Y. c #FDE54B",
"T. c #F5EA49",
"R. c #FCEB4B",
"E. c #FFF144",
"W. c #FEF04A",
"Q. c #EEE255",
"!. c #EBE15B",
"~. c #F3E454",
"^. c #FBE454",
"/. c #F3E955",
"(. c #FDEB54",
"). c #F5E559",
"_. c #FBE55A",
"`. c #F5EB5C",
"'. c #FCEB5B",
"]. c #FEF252",
"[. c #FFF45D",
"{. c #D6CB69",
"}. c #DDD266",
"|. c #C7C273",
" X c #D8CC79",
".X c #DAD476",
"XX c #EDCF6F",
"oX c #E7DA65",
"OX c #E7DE79",
"+X c #ECE263",
"@X c #EBE16B",
"#X c #EDE86A",
"$X c #F3E362",
"%X c #FAE664",
"&X c #F6EC64",
"*X c #FCEC63",
"=X c #F4E46C",
"-X c #FDE56C",
";X c #F5EB6C",
":X c #FBEC6B",
">X c #FDF265",
",X c #FAF46C",
"<X c #E8E174",
"1X c #EEE57A",
"2X c #F6E475",
"3X c #F4EC75",
"4X c #FDEC73",
"5X c #F3EB7B",
"6X c #FBED7A",
"7X c #FAF37A",
"8X c #A29B91",
"9X c #A7A597",
"0X c #D1C789",
"qX c #E8DD86",
"wX c #EBE389",
"eX c #F9EB84",
"rX c #F9F283",
"tX c #FAF28B",
"yX c #EEE795",
"uX c #F3E995",
"iX c #F8F29A",
/* pixels */
"                                  , i : : i ; i ; p                                         ",
"                                a   .         .                                             ",
"                                z $ $ . $ @ . . $ &                                         ",
"                    a x ! ! ! ..=.j.h.,.<.<.l.1.,.*. .l s 1 +                               ",
"                    ; O   . . . ' yXrX;X&X*X'.*X,XwXm @ .   . . k                           ",
"                  - - & o . % @ &.5X).T.W.W.P.P.T.:XC # @ . o   N                           ",
"              f x @.( P K I I U 6.'.K.P.P.i.I.P.a.U.>.L L R P _ W X                         ",
"            s   . 0 .X5X3X;X%X_.Y.R.i.a.I.I.P.a.u.P.%X6X-X=X1XyXk.$ . 8                     ",
"            | . $ q }.&X:X).(.L.L.I.p.s.s.y.s.r.w.s.Y.^.'._.&X5Xb.$ $ *                     ",
"        , f m.m e L G.U.U.(.L.I.p.p.I.s.p.p.s.s.w.q.s.I.L.R./.:XV.B e u                     ",
"      } . $ J .X!.8.I.E.p.i.p.I.p.p.I.L.L.Y.L.p.t.w.u.u.i.R.K.).'.H..XW u 4 a               ",
"       .. $ K ;XP.d.u.p.r.s.s.i.s.E.p.Y._._._.F.i.u.q.w.s.P.].Y.U./.;X{.0 . $               ",
"    + / $ 5 U `.T.i.i.I.I.p.I.i.p.I.I._.XXXXoX*XR.u.0.w.s.P.L.9.I.T./.H.v 3 0               ",
"l g y n.0XC.S.'.T.P.R.L.p.p.p.I.s.s.P.4.c 7 C A.(.a.d.d.i.p.p.p.E.P.U.>XZ.*.t d y ,         ",
"1 . . k.uX6X`.U.U.I.I.p.p.I.L.I.s.r.W.5.# # 5 {.>XP.y.t.p.I.s.t.p.p.K.(.&X3X|.G . o         ",
"s . . n.yX<X#X=X$X~.i.I.P.L.L.p.s.p.P.5.# # q A./.P.s.u.p.p.t.t.p.W.P.K.'.+X5XD .           ",
"    < ..J H H J A I Q.P.P.Y.L.L.I.9.R.7.2.2.4.J.U.p.s.r.p.L.I.I.s.p.p.P.Y.$X5XD .   <       ",
"      h o X     . e }.&X'.^.^.U.(.(.Y.^.*X'.(.R.I.L.I.p.I.L.L.L.s.p.u.s.R.).@XL $ . l       ",
"      s     .   . 0 OX@X=X4X;X4X:X=X:X*X'.Y.(.L.Y.L.I.L.L.I.s.s.s.p.s.s.P.(.:XI $ o ^       ",
"        , f k } @.O.f.:.,.:.:.&.:.&.&.3.).R.K.R.R.L.R.P.i.I.a.s.u.s.s.a.I.R.Q.;.U _ o. .f , ",
"                  , = . . @ . . @ @ @ C $XU.T.T.K.P.P.P.P.P.s.s.s.s.u.u.s.I.(.*X6XuXj.o   + ",
"                    + . .     +     . V tX;X&X`.*X*XP.i.R.L.L.s.s.a.u.u.s.s.K.'.$XeXh.. X , ",
"                    X.] ] { [ x [ } j ^ N.v.b.b.b.c.D.L.R.L.Y.L.I.s.u.u.u.p.R._.).2Xg.o X > ",
"                          O + + 1 X.$.9X& $ $ % # 2 4.(.Y.Y.Y.Y.I.I.u.u.u.p.Y.F.'.-Xh..   > ",
"                            X   + x +.9X  . @ # # # 6.'.Y.Y.Y.Y.I.I.s.u.u.p.L.^.^.-Xg.$   > ",
"                          + + O 1 X.#.8Xw = 5 6 6 c 6.(.Y.Y.L.L.I.I.s.u.u.p.L.F.'.4Xg.$   , ",
"                    ! < 8 * 9 1 a s 8 Q C.{.A.A.A.Z.K.P.P.I.s.p.s.s.s.s.s.s.L.Y._.=Xg.$   , ",
"                    $ . . $ . o . . @ H OX>X'.(.(.R.s.r.a.a.u.u.p.s.s.s.s.P.R.'.:XtXg.. . , ",
"                  1 3 @ $ @ $ . % % # A $X(.Y.R.i.I.I.I.P.a.u.u.u.p.s.p.L.R.U.G.1XyXj.$   : ",
"        z ! x } | ^ z.b.v.v.z.v.v.l.c.V._.P.p.I.s.I.p.L.L.I.s.s.t.p.p.L.I.(.>X-.B F o.h 1   ",
"      k X       $ 0 .X3X6X=X4X4X:X*X).'.[.U.I.s.u.u.t.s.p.L.I.p.p.p.p.L.R.(.!.S $ . ..      ",
"      ! . o . $ . e oX`.~.'.K.(.L.L.P.I.P.R.I.t.u.s.q.t.p.L.I.I.p.p.p.L.R._.3XK . . |       ",
"O , h o.' ) &.R %.-.D.(.Y.R.I.I.s.I.s.s.s.s.s.s.s.s.s.p.s.L.I.I.p.s.p.p.L.).@XL .   !       ",
"r   $ f.iXeXeX6X*X^.(.R.L.p.s.s.s.s.s.s.s.s.s.s.s.s.s.s.I.I.L.p.s.p.9.I.R.:XtXZ .   x       ",
"& o o k.wXrX;XQ.T.P.I.L.L.L.s.s.u.u.u.u.s.p.p.s.s.s.I.I.I.I.I.p.s.I.I.R.%X6XqXJ .   k       ",
"! ~ W *.B.x.Z.`.T.e.i.W.I.p.s.s.u.u.u.s.p.p.p.p.s.I.I.I.I.I.I.I.s.I.P.D.c.v.M.^ h f a       ",
"  X X ..o . K #X`.].P.a.t.s.u.u.s.s.s.s.I.L.I.I.I.I.p.s.s.s.K.P.i.P.(.oXn # $ l             ",
"      X.  $ D tX+X*XR.I.s.u.u.s.p.L.I.I.s.s.I.I.I.I.s.p.p.s.R.T.(.*X=XqX5 . . a             ",
"      } 8 * ( |.{.A.`.R.I.s.p.L.Y.Y.L.I.s.s.s.s.s.s.p.p.p.p.a.K.$X{. Xk.M 8 8 <             ",
"      X O + ~ w 3 C H.(.e.I.I.L.Y.L.I.I.s.u.s.s.s.s.s.p.p.s.P.>XV.q 5 m a                   ",
"            s . $ 0 oX`.R.I.P.I.u.u.s.r.I.s.I.t.s.s.i.s.a.T./.3XB.$ @ $                     ",
"            a $ . e  X<XoX$X$XG.P.a.E.I.Y.Y.L.r.I.P.^.Q.!.+XoXwX=.% . <                     ",
"              , 1 h Q b b Z n B ;.e.T.R.J.^.L.L.].G.Y v v B v b Q t + O                     ",
"                  O @ @ @ . . o -.,X/._.-X-X'.F.).3XB $ . . . . y                           ",
"                    -   .     o ` 7X3X7XeX2X=X4X6XqXF o     . . g                           ",
"                    + s f f f z o.T T R _ ` R E T ( O.h s s a a O                           ",
"                                 .o . .   . . o X & ,                                       ",
"                                }   .     X X       +                                       "
};
