/* XPM */
static char *aa22f3e18e2d41fbc2ea0037cc8361a3iBLIgFMpY5JLMHIx[] = {
/* columns rows colors chars-per-pixel */
"50 50 217 2 ",
"   c None",
".  c #520D1F",
"X  c #52121F",
"o  c #4B091B",
"O  c #570E23",
"+  c #5C1224",
"@  c #591826",
"#  c #4E1321",
"$  c #611324",
"%  c #65152B",
"&  c #6C1B2C",
"*  c #671A27",
"=  c #721D2E",
"-  c #7B192D",
";  c #671B33",
":  c #741D33",
">  c #7A1C31",
",  c #59262E",
"<  c #74212D",
"1  c #7A232E",
"2  c #662B38",
"3  c #752133",
"4  c #7C2434",
"5  c #7C243A",
"6  c #742D3C",
"7  c #7A2638",
"8  c #6B333D",
"9  c #673538",
"0  c #72333F",
"q  c #7B343F",
"w  c #68272C",
"e  c #6C4339",
"r  c #734639",
"t  c #7A533D",
"y  c #353561",
"u  c #6B3B49",
"i  c #683843",
"p  c #733943",
"a  c #733742",
"s  c #773A52",
"d  c #4A3A48",
"f  c #3C4D5A",
"g  c #2B5A6B",
"h  c #375C65",
"j  c #2E4D71",
"k  c #2A5771",
"l  c #395C72",
"z  c #2E456F",
"x  c #2C636B",
"c  c #2C6A6A",
"v  c #33636B",
"b  c #376668",
"n  c #326173",
"m  c #5C484E",
"M  c #5C4B54",
"N  c #564852",
"B  c #4A5B59",
"V  c #535952",
"C  c #5C5B55",
"Z  c #555E5B",
"A  c #5C5D5A",
"S  c #595356",
"D  c #674648",
"F  c #784A4C",
"G  c #7C5645",
"H  c #644C5C",
"J  c #654953",
"K  c #774858",
"L  c #615959",
"P  c #71555B",
"I  c #4D695E",
"U  c #4D645C",
"Y  c #53645C",
"T  c #7E604B",
"R  c #5C4F6A",
"E  c #485C69",
"W  c #575A66",
"Q  c #685461",
"!  c #735367",
"~  c #4E6D65",
"^  c #46626B",
"/  c #526D64",
"(  c #5C6566",
")  c #547063",
"_  c #527168",
"`  c #466879",
"'  c #576A7E",
"]  c #40757A",
"[  c #7A6C6F",
"{  c #811E35",
"}  c #822635",
"|  c #8B2536",
" . c #822936",
".. c #8B2936",
"X. c #822639",
"o. c #832939",
"O. c #8C2B3B",
"+. c #8E263B",
"@. c #942C3D",
"#. c #9A2C3D",
"$. c #98243A",
"%. c #94303D",
"&. c #9D323F",
"*. c #842C34",
"=. c #A2293C",
"-. c #A3313C",
";. c #8E2D40",
":. c #952E42",
">. c #9B2D42",
",. c #9D2543",
"<. c #8C3346",
"1. c #853945",
"2. c #953041",
"3. c #9A3143",
"4. c #9A374A",
"5. c #A42D44",
"6. c #AC2D44",
"7. c #A62E49",
"8. c #AB2C4B",
"9. c #A72646",
"0. c #B22E4C",
"q. c #B02E47",
"w. c #A53345",
"e. c #AA3346",
"r. c #A63349",
"t. c #AB344A",
"y. c #AC394F",
"u. c #B2334D",
"i. c #B7344D",
"p. c #B22F51",
"a. c #AD3950",
"s. c #B43450",
"d. c #B93351",
"f. c #B03850",
"g. c #835D47",
"h. c #89454C",
"j. c #87664D",
"k. c #956E4D",
"l. c #8F724E",
"z. c #92724F",
"x. c #896A55",
"c. c #956B51",
"v. c #986951",
"b. c #8D7353",
"n. c #8C745C",
"m. c #85715B",
"M. c #947E5D",
"N. c #957657",
"B. c #8B6863",
"V. c #946A62",
"C. c #986963",
"Z. c #8B7567",
"A. c #967C65",
"S. c #A36865",
"D. c #A87F6C",
"F. c #9A825D",
"G. c #97805B",
"H. c #A1815E",
"J. c #9C8463",
"K. c #9C836C",
"L. c #9B8568",
"P. c #9D8972",
"I. c #AC816E",
"U. c #A48869",
"Y. c #A58370",
"T. c #AC8574",
"R. c #A48B73",
"E. c #A48C78",
"W. c #AC9374",
"Q. c #A5937D",
"!. c #A9957D",
"~. c #A79376",
"^. c #3F6E83",
"/. c #486D81",
"(. c #6E7391",
"). c #6079A1",
"_. c #66819F",
"`. c #678AAD",
"'. c #A79783",
"]. c #AA9681",
"[. c #AB9984",
"{. c #AA9C89",
"}. c #B39D83",
"|. c #B09E8A",
" X c #AEA38E",
".X c #B3A38E",
"XX c #BCA68C",
"oX c #AFA494",
"OX c #AEA899",
"+X c #B3A593",
"@X c #B5A993",
"#X c #BAAB95",
"$X c #B5AB9C",
"%X c #BAAB9A",
"&X c #B7A796",
"*X c #BEB19D",
"=X c #BCAFA1",
"-X c #BDB2A4",
";X c #BFB5A8",
":X c #C2B29C",
">X c #C0AF9B",
",X c #C3B5A2",
"<X c #C6B8A4",
"1X c #CABAA6",
"2X c #C1B6AA",
"3X c #C5BAAC",
"4X c #CBBDAB",
"5X c #C7BDB1",
"6X c #C9BEB2",
"7X c #D0BEA7",
"8X c #CEC1AE",
"9X c #D1C1AC",
"0X c #CDC1B4",
"qX c #CEC4B9",
"wX c #D2C4B4",
"eX c #D1C5BA",
"rX c #D4CABC",
/* pixels */
"                                                                                                    ",
"                                        wXwXwX9X9X9X9X9X9X8X4X                                      ",
"                              0X0X8X8X4X4X4X4X4X4X4X4X1X1X1X1X<X<X1X1X                              ",
"                          0X0X4X4X4X4X1X<X<X:X:X:X:X:X:X:X:X,X,X,X,X,X,X<X4X                        ",
"                    rXrX4X1X3X3X,X#XXX}.W.W.U.U.U.U.U.U.R.~.!.}..X%X*X,X:X<X4X8X                    ",
"                  eXrXrX0X:X#X}.W.U.H.N.j.g.t r r e r r G g.c.N.J.U.!..X-X3X4X4X8X9X                ",
"              eXeXeXqX0X:XW.U.F.b.G 9 , @ X X . . o O O + + @ w r j.N.A.R.@X1X4X4X4X8X              ",
"            wXwXwX0X4X.XR.F.j.9 # . O + $ % * & & $ = = & & * $ + # 9 G n.A.!.,X4X4X4X8X            ",
"          wX0X0X0X,X!.L.b.e @ O O % & = : = : 3 = * 3 4 3 3 3 3 & + $ + 9 j.n.K.&X4X4X4X4X8X        ",
"        4X4X4X4X%X~.J.T , O % ; % = 3 3 3 3 3 4 3 & } 4 4 4 4 4 3 * = * $ @ F n.A.|.3X4X4X4X4X      ",
"      4X4X1X1X#XP.M.D @ % : 7 7 & > 4 4 4 4 4 4 3 = } X.X.5 7 4 4 & 3 3 = * + 9 m.L.|.3X1X3X3X      ",
"    1X1X1X1X#XP.M.e @ : 5 5 5 5 = 4 } } 4 4 4 4 3 < X.o.o.o.o. .4 < 4 4 4 3 & + 9 Z.K..X3X<X<X<X    ",
"    ,X<X<X>X~.J.G * 3 5 5 X.o.5 = } X.} } 4 } } 3 1 ..o.o. . . .7 < 4 4 4 4 3 = $ 8 L.P.#X<X,X,X,X  ",
"  ,X,X,X,X}.U.x.w 1 4  .o.o. .} = } X.X.} } } } 1 1 .. . . . . .} < 4 4 4 4 4 1 & * n.P.[.,X,X,X*X  ",
"  9X1X<X#XW.J.g.9 8 8 a p p p p 8 0 p a a p p p 8 8 p p p p p 0 0 9 8 8 8 8 8 8 2 , m.P.|.3X5X=X|.  ",
"  4X:X#X}.~.J.[ l l k x x x x x x x x x v v v v v v v x x x x g g g g k k k j j z y B.E..X2X&X].~.  ",
"  |.{.[.'.Q.J.m.i u u u p p a 8 2 8 0 0 0 0 0 0 2 2 0 0 0 0 0 6 6 2 6 6 6 6 6 6 6 ; B.~.{.[.Q.Q.'.  ",
"  .XoX+XoX{.J.x. .@.#.#.#.#.#.#...#.#.#.#.#.#.#...O.:.#.:.:.#.#.@.X.#.#.#.@.O.O.O.3 B.~.|.+X+X+X+X  ",
"   X+X+X+X XJ.b.o.@.:.:.:.:.:.@...>.>.>.:.:.%.#.O.O.:.:.:.:.:.:.@.o.#.:.:.:.;.O.O.3 B.~..X+X+X+X+X  ",
"  .X+X+X+X XJ.b.o.:.:.:.:.:.:.:...>.3.2.2.2.2.%.O.O.:.:.2.2.2.2.:...:.:.:.;.;.;.O.: B.Q..X+X+X+X+X  ",
"  .X+X+X+X XJ.b.O.:.:.:.:.:.:.:...3.3.3.2.2.2.%.O.@.:.:.2.2.2.2.:...:.:.:.;.;.O.O.: V.Q..X+X+X+X+X  ",
"  .X+X+X+X XJ.b.O.:.:.:.:.:.:.:.O.3.3.3.2.2.2.%.O.O.#.>.>.2.2.2.@...:.:.:.:.:.;.O.: V.!.+X+X+X+X+X  ",
"  .X+X+X+X XJ.b.O.:.:.:.:.:.:.:.O.3.3.3.3.2.%.@.....#.#.>.3.3.2.@...:.:.:.:.:.:.O.> V.!..X+X+X+X+X  ",
"  .X+X+X+X XJ.b.O.>.:.:.:.:.:.:.O.3.3.>.>.#.<.K R R H 1.#.3.3.#.#.O.:.:.:.:.:.:.+.> V.Q.+X+X+X+X&X  ",
"  +X+X+X+X XF.z.O.>.>.>.>.:.:.@.O.>.>.>.>.K ` ` W S E l H &.&.#.#.| #.>.:.:.#.@.+.- V.].+X+X+X+X&X  ",
"  +X@X+X+X XF.z.O.#.#.>.#.#.@.@.| #.>.5.K ' Q F P F 1.M n F -.#.#.| #.#.#.#.@.$.+.- V.].+X+X+X&X$X  ",
"  +X@X@X@X XF.l.D D D D D J J M M H H H /.' h.(.`._.! q B W K J J m M M N N N N N d Z.].+X+X+X&X$X  ",
"  +X@X@X@X XF.b.b c c c c c b b ^ ^ W R ' ' h.[ ).).! q E ` E E v h v v v v b h h f Z.].+X+X+X&X&X  ",
"  +X@X@X@X.XF.l.0 <.<.<.<.2.2.2.O.3.r.r.Q /.P *.s s q m ] L %.%.%. .@.2.2.2.:.@.O.X.V.].+X+X+X&X&X  ",
"  +X@X@X@X.XF.z.;.7.7.7.t.t.e.e.>.t.y.y.4.W ] W D u Z ] ( 4.w.w.r.#.w.e.e.r.r.r.5.:.C.].+X+X@X&X&X  ",
"  +X@X@X@X+XF.z.2.7.7.t.t.t.r.r.>.r.y.y.y.4.H ` ^./.` P 4.r.w.w.w.#.w.e.r.r.r.w.5.:.C.].+X@X#X&X&X  ",
"  +X@X@X@X+XF.z.2.7.r.r.r.r.r.r.>.r.y.a.a.y.r.4.<.<.4.r.r.r.w.w.w.#.r.e.w.r.r.w.>.:.C.Q.+X#X&X&X%X  ",
"  @X@X@X@X@XF.z.2.7.r.r.r.r.r.r.>.r.y.a.a.a.y.y.t.t.t.t.t.r.r.r.e.#.e.r.w.r.r.w.>.:.C.'.+X@X&X&X$X  ",
"  @X@X@X@X@XF.z.2.7.r.r.r.r.r.r.>.e.f.f.a.a.y.y.r.t.r.r.r.r.r.r.r.#.e.r.t.r.r.r.5.:.C.Q.+X#X&X&X%X  ",
"  @X@X@X#X@XF.z.3.7.t.t.t.y.y.r.>.r.f.f.f.f.y.y.r.t.t.t.t.t.t.r.r.#.e.t.t.r.r.7.5.>.C.!.@X#X&X&X%X  ",
"  @X@X@X#X@XF.z.>.8.8.t.t.t.t.t.#.e.f.u.f.u.u.y.t.t.t.t.t.t.t.t.e.#.e.t.t.t.r.7.5.,.C.!.@X#X&X&X%X  ",
"  @X#X#X#X+XF.k.>.7.7.t.t.t.t.e.#.w.u.u.u.u.y.t.t.e.t.t.t.t.t.e.e.#.e.t.e.e.7.7.7.,.C.!.&X&X&X%X%X  ",
"  @X#X#X#X+XF.k.3.r.r.r.r.r.w.e.#.-.t.t.t.t.t.t.w.w.e.e.e.e.e.e.w.@.w.r.r.w.w.3.3.@.V.].&X&X%X%X%X  ",
"  @X#X#X%X@XF.b.( / / / ) ) ) ) / ) ) _ _ _ _ / / / ~ ~ ~ ~ ~ / I I I I I I I I I B Z.].@X&X%X%X%X  ",
"  #X#X#X%X@XF.b.W Z Z Y Y Y Y U B Z A A A A A A V B Z A L L C C C V V V C S S M M m Z.[.+X&X&X%X=X  ",
"  #X#X#X%X@XF.c.:.7.8.8.8.8.7.7.{ 5.q.q.0.0.q.q.>.} 8.0.0.0.0.u.7.$.9.6.6.8.9.9.9.,.S.].+X&X&X$X=X  ",
"  #X#X#X%X.XF.c.r.p.s.p.p.s.u.t.+.q.d.d.d.d.s.s.5.X.d.d.d.d.d.s.s.$.q.0.q.0.0.0.8.8.S.].+X&X&X$X=X  ",
"  #X#X#X%X.XG.v.7.p.p.p.p.p.u.t.| q.d.d.d.d.i.i.7.X.d.d.d.d.s.s.s.$.8.0.q.0.0.0.8.8.S.'.+X&X$X$X-X  ",
"  ,X:X*X*X.XM.v.7.8.8.8.8.8.8.7.| 6.d.i.i.i.u.u.5.4 d.d.d.s.i.u.u.$.6.q.8.8.8.8.8.9.S.'.+X%X$X-X-X  ",
"  wX9X4X<X.XM.v.w.7.7.7.7.5.5.5.{ =.6.6.6.6.6.6.#.1 q.u.u.u.t.e.6.$.=.6.6.6.6.5.=.=.S.'.+X$X2X2X&X  ",
"  9X7X1X#X!.L.U.Y.D.I.I.D.I.T.T.Y.Y.T.T.T.T.T.T.T.R.T.T.T.T.T.T.T.Y.Y.Y.Y.Y.Y.Y.Y.Y.Q.{.+X;X,X[.K.  ",
"  XX}.~.R.P.Q.{.+X+X+X&X$X$X$X$X$X$X$X$X$X$X$X$X$X$X$X$X$X$X$X$X$X$X$X$X$XOXOXOXOXOXOXOX+X+XE.K.K.  ",
"        '.$X;X2X3X5X6X6X6X6X6X0X0X0X0X0X0X0X0X6X6X6X6X6X6X5X5X3X3X2X2X2X2X2X;X;X;X-X-X=X$XQ.        ",
"          qXqXqXqXqXqXqXeXeXeXeXeXeXeXeXeXeXeXeX0X0X0X0X0X6X6X6X6X5X3X3X3X2X2X2X2X;X;X-X$X          ",
"            0X0XqXqXqXeXeXeXeXeXeXeXeXeXeXeXeXeX0X0X0X0X6X6X6X6X3X3X3X3X3X2X2X2X2X;X-X=X            "
};
