/* XPM */
static char *_351ceae099649d4da148c97eb1414a0KpCGvj8haQguBEW5[] = {
/* columns rows colors chars-per-pixel */
"46 49 221 2 ",
"   c #000000",
".  c #0B0400",
"X  c #070901",
"o  c #0D0A01",
"O  c #05050A",
"+  c #0C0B0B",
"@  c #130400",
"#  c #1A0400",
"$  c #130B00",
"%  c #1B0D00",
"&  c #161400",
"*  c #1C1606",
"=  c #1D1803",
"-  c #14110C",
";  c #0E0C1A",
":  c #110F19",
">  c #0D1211",
",  c #131314",
"<  c #1B1817",
"1  c #1B1A1A",
"2  c #240B00",
"3  c #231B00",
"4  c #261806",
"5  c #2C1E00",
"6  c #311C00",
"7  c #381E00",
"8  c #221C18",
"9  c #1E2015",
"0  c #2C2401",
"q  c #312300",
"w  c #332D07",
"e  c #3C3201",
"r  c #27251A",
"t  c #25221C",
"y  c #332C1C",
"u  c #3E3719",
"i  c #1A1924",
"p  c #1C1B26",
"a  c #242323",
"s  c #2A2527",
"d  c #2A2924",
"f  c #2C2B2B",
"g  c #322D2A",
"h  c #32312D",
"j  c #3C3928",
"k  c #302F30",
"l  c #343433",
"z  c #393737",
"x  c #3B3A36",
"c  c #3D3C3D",
"v  c #422800",
"b  c #453C00",
"n  c #443905",
"m  c #4A3C01",
"M  c #483B17",
"N  c #4D3E2B",
"B  c #403D32",
"V  c #4C4301",
"C  c #4F430F",
"Z  c #554402",
"A  c #524707",
"S  c #5B4C04",
"D  c #5C5405",
"F  c #575109",
"G  c #4D4713",
"H  c #4D4815",
"J  c #574D13",
"K  c #57531A",
"L  c #615C01",
"P  c #675A07",
"I  c #635D13",
"U  c #6E6302",
"Y  c #746704",
"T  c #7F720A",
"R  c #686716",
"E  c #76691A",
"W  c #78721A",
"Q  c #4D4A2C",
"!  c #5A502E",
"~  c #43433D",
"^  c #484738",
"/  c #595437",
"(  c #60593F",
")  c #67642B",
"_  c #756E20",
"`  c #746B28",
"'  c #7A7525",
"]  c #7B773B",
"[  c #3C3545",
"{  c #3D3B42",
"}  c #453F4B",
"|  c #434142",
" . c #494643",
".. c #514C43",
"X. c #595648",
"o. c #555356",
"O. c #767249",
"+. c #6E6A52",
"@. c #616061",
"#. c #75746D",
"$. c #726F71",
"%. c #827210",
"&. c #877B28",
"*. c #847E48",
"=. c #857F5A",
"-. c #938914",
";. c #A49E16",
":. c #8A812B",
">. c #92842B",
",. c #978D3D",
"<. c #9B8D3D",
"1. c #9C903E",
"2. c #AA9529",
"3. c #B29D32",
"4. c #BAA728",
"5. c #B5A92C",
"6. c #BBA831",
"7. c #E1CF3F",
"8. c #E7DE3E",
"9. c #F4DE37",
"0. c #EFE224",
"q. c #F8E62B",
"w. c #FAEA2F",
"e. c #EEE139",
"r. c #F5E335",
"t. c #FCE534",
"y. c #F6EA34",
"u. c #FDEA35",
"i. c #F5E43B",
"p. c #FDE63B",
"a. c #F6EA3C",
"s. c #FDEA3C",
"d. c #FCF137",
"f. c #8A854A",
"g. c #978C47",
"h. c #9E934D",
"j. c #8A8450",
"k. c #938A59",
"l. c #A89844",
"z. c #A69B5C",
"x. c #A9A448",
"c. c #BCA944",
"v. c #AFA558",
"b. c #B5A75A",
"n. c #8F8561",
"m. c #92886F",
"M. c #A69B68",
"N. c #ABA863",
"B. c #B4AB65",
"V. c #C5B749",
"C. c #C5BB66",
"Z. c #CBC54C",
"A. c #D7C857",
"S. c #D9CD50",
"D. c #EAD94B",
"F. c #F7DE48",
"G. c #EBDC53",
"H. c #E4DB5D",
"J. c #F6DF52",
"K. c #F4E445",
"L. c #FDE643",
"P. c #F5E944",
"I. c #FDEA43",
"U. c #F5E54A",
"Y. c #FDE54B",
"T. c #F5EA49",
"R. c #FCEB4B",
"E. c #FFF144",
"W. c #FEF04A",
"Q. c #EEE255",
"!. c #EBE15B",
"~. c #F3E454",
"^. c #FBE454",
"/. c #F3E955",
"(. c #FDEB54",
"). c #F5E559",
"_. c #FBE55A",
"`. c #F5EB5C",
"'. c #FCEB5B",
"]. c #FEF252",
"[. c #FFF45D",
"{. c #D6CB69",
"}. c #DDD266",
"|. c #C7C273",
" X c #D8CC79",
".X c #DAD476",
"XX c #EDCF6F",
"oX c #E7DA65",
"OX c #E7DE79",
"+X c #ECE263",
"@X c #EBE16B",
"#X c #EDE86A",
"$X c #F3E362",
"%X c #FAE664",
"&X c #F6EC64",
"*X c #FCEC63",
"=X c #F4E46C",
"-X c #FDE56C",
";X c #F5EB6C",
":X c #FBEC6B",
">X c #FDF265",
",X c #FAF46C",
"<X c #E8E174",
"1X c #EEE57A",
"2X c #F6E475",
"3X c #F4EC75",
"4X c #FDEC73",
"5X c #F3EB7B",
"6X c #FBED7A",
"7X c #FAF37A",
"8X c #A29B91",
"9X c #A7A597",
"0X c #D1C789",
"qX c #E8DD86",
"wX c #EBE389",
"eX c #F9EB84",
"rX c #F9F283",
"tX c #FAF28B",
"yX c #EEE795",
"uX c #F3E995",
"iX c #F8F29A",
/* pixels */
"                                        p ; i ; i : : i ,                                   ",
"                                            .         .   a                                 ",
"                                        & $ . . @ $ . $ $ B                                 ",
"                              + 1 s z ..*.,.1.l.<.<.g.h.j.=.X.~ ~ ~ c a                     ",
"                          h . .   . @ M wX,X*X`.*X&X;XrXyX] . . .   O ;                     ",
"                          B   o . @ # Z :XT.P.I.W.W.T.).5X&.@ % . o & - ,                   ",
"                        X Q ` I E P P >.U.a.I.I.i.I.P.K.'.6.Y U U L I ) +.c f               ",
"                    8 . $ k.yX1X=X-X6X%XI.u.a.I.s.I.a.i.R.Y._.%X;X3X5X.X0 .   s             ",
"                    * $ % b.5X&X_.'.^.Y.u.w.r.u.y.s.s.p.I.L.L.'.).:X&X}.q $ .  .            ",
"                    u e V V.:X`.R.L.I.s.q.w.u.s.p.p.s.I.t.t.I.L.(.U.U.G.L e M m.f <         ",
"              a 4 u Q .XH.`.).K.R.i.u.u.w.t.p.L.Y.L.L.I.p.t.I.p.i.p.E.I.8.!..XK $ . |       ",
"              $ . 0 {.;X/.T.Y.].I.s.w.q.u.i.F._._._.Y.i.E.s.i.s.s.r.p.u.s.P.;XL $ . ..      ",
"              0 3 b H./.R.I.9.L.I.s.w.0.a.R.*XoXXXXX_.I.I.t.i.I.p.I.R.i.i.R.`.Y 5 $ ( +     ",
"        , y d t *.Z.>XT.I.E.p.p.p.i.d.d.a.(.A.Z 7 v 4.I.I.s.I.p.p.i.L.R.I.T.'.S.C.0Xn.y g z ",
"        o . H |.3X&X'.K.i.p.t.u.I.t.t.y.P.>X{.5 # # 5.W.r.u.I.L.I.t.t.I.I.T.U.`.6XuXk.. . 1 ",
"          . F 5X+X'.K.I.W.p.t.t.p.p.u.s.P./.A.q # @ 5.I.t.s.p.L.L.I.I.i.~.$X#X#X<XyXn.. . s ",
"      1   . F 5X&XY.I.p.p.s.I.I.L.s.t.u.a.T.J.4.2.2.7.R.9.I.L.L.Y.K.P.Q.U F K J J K X.<     ",
"      x . $ P @X).R.s.p.p.s.L.I.L.I.p.I.L.I.R.(.'.*X^.Y.(.(.U.^.^.`.&X}.e .     X o h       ",
"      / o @ U :X(.R.s.u.p.u.s.a.I.L.L.I.L.Y.L.(.Y.'.*X:X=X:X4X;X4X=X@XOX0 .   .     a       ",
", f ..O.` Y ;.~.R.I.s.u.u.u.u.s.I.i.I.R.L.(.R.K.Y.).3.&.&.:.&.:.:.,.:.f.+.#.| z f <         ",
"O   o j.uX6X*X(.I.s.a.a.u.u.u.s.K.P.I.I.I.K.R.T.U.$XZ @ @ . . . @ . . = ,                   ",
",   . h.rX$X'.L.s.u.a.a.a.s.s.L.L.R.i.K.*X*X`.&X;XtXC .     +     . . +                     ",
">   o g.2X^._.R.p.u.u.a.s.I.L.Y.L.R.L.D.c.b.b.b.v.N./ j ~ } c { } [ [ o.                    ",
">   . h.-X'.F.Y.p.u.u.a.I.I.Y.Y.L.Y.(.4.2 # % $ $ & 9X#.o.1 + + +                           ",
">   $ g.-X^.^.L.p.u.u.s.I.I.Y.Y.Y.Y.'.6.# # # @ .   9X@.c +   X                             ",
",   % g.4X'.F.L.p.u.a.u.I.I.L.L.Y.Y.^.6.v 6 6 5 = w 8X$.o.1 O + +                           ",
",   % g.=X_.Y.L.s.u.a.a.s.s.p.s.I.I.I.K.Z.A.A.A.{.C.! 8 s a 1 9 * 8 < ~                     ",
", . . g.tX:X'.R.I.s.s.s.s.p.u.u.a.a.r.a.R.(.(.'.>XOXJ $ .   o . $ . . $                     ",
":   $ j.yX1XG.U.R.L.p.s.p.u.u.u.a.I.I.I.I.i.R.Y.(.$XS # % % . $ @ $ @ = 1                   ",
"  1 h O.G V -.>X^.I.L.p.p.t.u.u.I.L.L.p.I.s.I.p.K._.V.c.l.v.v.z.v.v.b.z./  .| c ~ x         ",
"      X.. $ D !.(.R.L.p.p.p.p.I.L.L.s.t.u.u.u.I.T.[.'.).*X:X4X4X=X6X3X.X0 $         z       ",
"       .. . L 3X_.R.L.p.p.p.I.I.L.p.t.q.u.u.t.I.R.K.I.I.L.L.(.K.'.~.`.oXe . $ . o . ~       ",
"      ~   . P @X).L.p.p.s.p.I.L.L.p.p.u.u.s.s.s.I.s.s.s.I.I.I.I.R.Y.(.D.-.%.E &._ ] O.h , + ",
"      c   . A tX:XR.I.9.p.s.p.L.I.I.s.s.s.s.s.u.u.u.u.u.u.u.s.s.L.L.R.(.~.*X6XeXeXiXf.%   r ",
"      z   . K qX6X*XR.I.I.s.t.I.I.I.I.I.s.s.u.p.p.u.u.u.u.u.s.s.L.L.L.I.I.T.Q.;XrXwXg.o o & ",
"      a f h / M.v.V.D.I.I.s.I.I.I.I.I.I.I.s.p.p.p.p.u.u.u.u.u.s.p.I.W.i.e.T.`.Z.x.B.*.Q ..B ",
"            x $ # m oX^.P.i.I.i.s.s.I.p.I.I.I.I.L.I.s.s.u.u.u.u.u.t.a.P.].`.#XL . o X.X O   ",
"            a . . 6 qX=X*X^.R.I.s.p.p.s.I.I.I.I.I.I.I.I.L.p.u.u.u.u.I.R.*X+XtXF %   o.      ",
"            1 t 8 N k. X{.+XU.a.p.p.p.u.s.s.s.s.u.u.I.L.Y.Y.L.p.u.I.R.`.A.{.|.) * 8 |       ",
"                  a u 5 q V.>XP.s.p.p.u.s.s.s.s.u.s.I.I.L.Y.L.I.I.e.(.H.Z 3 w ^ + + X       ",
"                    $ @ $ B.3X/.R.a.s.i.s.u.t.I.s.I.r.s.u.a.I.I.I.R.`.oX0 % . s             ",
"                    < . % =.wXoX+X!.Q.~.I.I.r.L.Y.Y.I.E.a.P.G.$X$XoX<X Xe . $ a             ",
"                    + + t ! n b V b b T G.].L.L.^.J.R.R.e.;.V m A n n ! h 1 ,               ",
"                          y . . . . $ V 3X).F.'.-X-X_./.,X-.o . . @ @ @ +                   ",
"                          g . .     o G qX6X4X=X2XeX7X3X7X' o     .   -                     ",
"                          + a a a a h +.) R W E ' ` E R R ] x f f f a +                     ",
"                                      < & X o . .   . . o ..                                ",
"                                      +       . X     .   |                                 ",
"                                        h l l x x z l l k f                                 "
};
