/* XPM */
static char *_990915d99074883ab92f66e5178fae2oPFaCBH3oFjODGu6[] = {
/* columns rows colors chars-per-pixel */
"49 46 222 2 ",
"   c #000000",
".  c #0B0400",
"X  c #070901",
"o  c #0D0A01",
"O  c #05050A",
"+  c #0C0B0B",
"@  c #130400",
"#  c #1A0400",
"$  c #130B00",
"%  c #1B0D00",
"&  c #161400",
"*  c #1C1606",
"=  c #1D1803",
"-  c #14110C",
";  c #0E0C1A",
":  c #110F19",
">  c #0D1211",
",  c #131314",
"<  c #1B1817",
"1  c #1B1A1A",
"2  c #240B00",
"3  c #231B00",
"4  c #261806",
"5  c #2C1E00",
"6  c #311C00",
"7  c #381E00",
"8  c #221C18",
"9  c #1E2015",
"0  c #2C2401",
"q  c #312300",
"w  c #332D07",
"e  c #3C3201",
"r  c #27251A",
"t  c #25221C",
"y  c #332C1C",
"u  c #3E3719",
"i  c #1A1924",
"p  c #1C1B26",
"a  c #242323",
"s  c #2A2527",
"d  c #2A2924",
"f  c #2C2B2B",
"g  c #322D2A",
"h  c #32312D",
"j  c #3C3928",
"k  c #302F30",
"l  c #343433",
"z  c #393737",
"x  c #3B3A36",
"c  c #3D3C3D",
"v  c #422800",
"b  c #453C00",
"n  c #443905",
"m  c #4A3C01",
"M  c #483B17",
"N  c #4D3E2B",
"B  c #403D32",
"V  c #4C4301",
"C  c #4F430F",
"Z  c #554402",
"A  c #524707",
"S  c #5B4C04",
"D  c #5C5405",
"F  c #575109",
"G  c #4D4713",
"H  c #4D4815",
"J  c #574D13",
"K  c #57531A",
"L  c #615C01",
"P  c #675A07",
"I  c #635D13",
"U  c #6E6302",
"Y  c #746704",
"T  c #7F720A",
"R  c #686716",
"E  c #76691A",
"W  c #78721A",
"Q  c #4D4A2C",
"!  c #5A502E",
"~  c #43433D",
"^  c #484738",
"/  c #595437",
"(  c #60593F",
")  c #67642B",
"_  c #756E20",
"`  c #746B28",
"'  c #7A7525",
"]  c #7B773B",
"[  c #3C3545",
"{  c #3D3B42",
"}  c #453F4B",
"|  c #434142",
" . c #494643",
".. c #514C43",
"X. c #595648",
"o. c #555356",
"O. c #767249",
"+. c #6E6A52",
"@. c #616061",
"#. c #75746D",
"$. c #726F71",
"%. c #827210",
"&. c #877B28",
"*. c #847E48",
"=. c #857F5A",
"-. c #938914",
";. c #A49E16",
":. c #8A812B",
">. c #92842B",
",. c #978D3D",
"<. c #9B8D3D",
"1. c #9C903E",
"2. c #AA9529",
"3. c #B29D32",
"4. c #BAA728",
"5. c #B5A92C",
"6. c #BBA831",
"7. c #E1CF3F",
"8. c #E7DE3E",
"9. c #F4DE37",
"0. c #EFE224",
"q. c #F8E62B",
"w. c #FAEA2F",
"e. c #EEE139",
"r. c #F5E335",
"t. c #FCE534",
"y. c #F6EA34",
"u. c #FDEA35",
"i. c #F5E43B",
"p. c #FDE63B",
"a. c #F6EA3C",
"s. c #FDEA3C",
"d. c #FCF137",
"f. c #8A854A",
"g. c #978C47",
"h. c #9E934D",
"j. c #8A8450",
"k. c #938A59",
"l. c #A89844",
"z. c #A69B5C",
"x. c #A9A448",
"c. c #BCA944",
"v. c #AFA558",
"b. c #B5A75A",
"n. c #8F8561",
"m. c #92886F",
"M. c #A69B68",
"N. c #ABA863",
"B. c #B4AB65",
"V. c #C5B749",
"C. c #C5BB66",
"Z. c #CBC54C",
"A. c #D7C857",
"S. c #D9CD50",
"D. c #EAD94B",
"F. c #F7DE48",
"G. c #EBDC53",
"H. c #E4DB5D",
"J. c #F6DF52",
"K. c #EFE14C",
"L. c #F4E445",
"P. c #FDE643",
"I. c #F5E944",
"U. c #FDEA43",
"Y. c #F5E54A",
"T. c #FDE54B",
"R. c #F5EA49",
"E. c #FCEB4B",
"W. c #FFF144",
"Q. c #FEF04A",
"!. c #EEE255",
"~. c #EBE15B",
"^. c #F3E454",
"/. c #FBE454",
"(. c #F3E955",
"). c #FDEB54",
"_. c #F5E559",
"`. c #FBE55A",
"'. c #F5EB5C",
"]. c #FCEB5B",
"[. c #FEF252",
"{. c #FFF45D",
"}. c #D6CB69",
"|. c #DDD266",
" X c #C7C273",
".X c #D8CC79",
"XX c #DAD476",
"oX c #EDCF6F",
"OX c #E7DA65",
"+X c #E7DE79",
"@X c #ECE263",
"#X c #EBE16B",
"$X c #EDE86A",
"%X c #F3E362",
"&X c #FAE664",
"*X c #F6EC64",
"=X c #FCEC63",
"-X c #F4E46C",
";X c #FDE56C",
":X c #F5EB6C",
">X c #FBEC6B",
",X c #FDF265",
"<X c #FAF46C",
"1X c #E8E174",
"2X c #EEE57A",
"3X c #F6E475",
"4X c #F4EC75",
"5X c #FDEC73",
"6X c #F3EB7B",
"7X c #FBED7A",
"8X c #FAF37A",
"9X c #A29B91",
"0X c #A7A597",
"qX c #D1C789",
"wX c #E8DD86",
"eX c #EBE389",
"rX c #F9EB84",
"tX c #F9F283",
"yX c #FAF28B",
"uX c #EEE795",
"iX c #F3E995",
"pX c #F8F29A",
/* pixels */
"                          z 1 s                                 O r & ~                           ",
"                          g . .                                 , . X / X                         ",
"                        + y . . <                               h $ X Q O                         ",
"                    | ..( n.k.n.X.h s                       l ~ O.f.k.O.X.o.| X                   ",
"                  , . . $ qXiXuXK X   ,                   x X X ] pXeXB.o . 8 O                   ",
"                  f $ $ 5 C.7X1XJ X   f                   ~   X _ rXtXx.. % * O                   ",
"              s  .m.K L Y S.'.$XJ   . l                   c . . &.rX:XZ.L F ) ^ s a               ",
"            f   . M XX:X'.].Y.$XK . . |                   |   $ E 7X!.'.$XyX Xw . $ ,             ",
"            c . $ e ~.I.R.R.R.%XS . . #.                   .$ . %.=XR.R.'.@X}.3 % . 1             ",
"          - +.0 q L 8.d.i.U.U.^.U e 0 +.,               1 / 0 e -./.U.e.[.=XA.Z 0 e h O           ",
"      a ; - ) XX|.G.U.u.i.E.U.i.!.|.+Xf.= + o.      ~ $ 3 z.XXOXD.).U.i.I.E.'.H.OX.X! @ - +       ",
"      c O & I 6X*XY.W.p.U.P.i.U.R.*X#X:.. . [       < . @ b.4X'.).E.P.Q.s.U.E.).'.1Xn @ . s       ",
"      ~   o L 4X>XY.p.r.U.p.i.U.L.].-X,.. . [       8 . $ v.7X^.T.P.P.U.t.s.U.e.E.OXn @ . f       ",
"      ~ . . U :X_.).9.s.p.p.U.P.P./.5X:.@ . } O   + * $ @ v.-X].E.p.P.p.s.u.s.U.U.%XA . . f       ",
"      ~ . % U &X).P.p.s.U.p.P.P.P.T.:X:..   { + X + 9 . $ z.5XL.U.s.s.s.u.u.p.U.U.%Xm .   f       ",
"      X.. @ Y `.L.U.U.i.i.U.U.p.P.Y.5X&.. + c +   O 1 X . v.5X).U.s.s.s.u.s.P.P.U.G.V X o x       ",
"  a B j.] &.6.T.U.i.i.s.i.s.s.s.U.).:X:.. . { 1 + 1 a . % v.>XP.U.s.u.u.u.p.T.T.p.I.;.-.' ] ..| f ",
",   $ j.uX6X].E.U.i.s.W.U.s.r.i.9.].-X&.@ . ~ o.c o.s . % l.=XP.U.s.u.u.s.P.T.P.s.a.8.<X8XR o   k ",
"i X $ h.tX_.L.i.p.U.U.p.U.U.Q.U.E.T.>X&.@ . j #.@.$.8 @ # c.].U.s.s.u.u.s.U.P.U.s.W.E.(.4XR . X l ",
": . . ,.:XR.R.s.s.s.P.T.`.4.5.5.7./.=X3.Z C / 0X0X9X! J S V.].U.s.s.u.s.s.U.U.U.r.U.E.`.8XE .   l ",
": . $ <.*XQ.U.U.s.p.P.`.oXv # @ 2.=X]._.%XyXN.& . w C.+X%X`.{.L.s.s.s.p.U.s.s.s.U.T.J.;XrX` .   l ",
"i . @ <.&XQ.i.s.y.p.T.`.oX7 # # 2.].T.T.Y.:Xv.$ . = }.,X].L.R.E.s.s.p.p.P.s.s.u.s.T./.;X3X' . X x ",
";   . l.].U.U.U.s.s.P.`.OXZ 5 q 4.).).L.R.*Xb.$ @ 5 A.].T.p.U.U.s.s.s.s.U.U.s.s.U.P.P.].;XE X X x ",
"i . . 1.=XI.U.s.r.s.p.F.=XA.}.A.J.E.L.E.R.'.b.% # 4 A.].E.U.s.y.s.s.s.s.U.U.s.s.y.r.P.F.5XW o   l ",
";   $ ,.<XR.a.u.w.w.t.i.E.).,X(.R.U.T.E.L.&Xb.# # 6 A.).i.s.u.u.s.s.s.p.P.U.s.s.s.U.[._.7XR X   l ",
"p   & *.eX>XK.U.s.q.w.u.a.a.I.I.s.P.P.P.U.=Xc.2 # v Z.E.U.U.u.u.s.s.s.P.U.U.s.s.s.U.G.4XwX) &   h ",
"      ..M Z >.&XT.s.u.q.0.d.y.s.s.U.U.E.U.L.D.4.6.6.L.s.U.p.t.q.s.s.U.U.p.s.s.s.i.^.T V G +., +   ",
"      z @ @ P 7X/.U.u.w.w.d.t.u.r.p.P.U.U.i.P.).]./.U.r.U.P.s.t.p.s.U.U.s.p.p.p.s.!.b $ o h       ",
"      s . @ P ;X].P.i.s.s.i.i.p.p.U.P.i.R.E.E.T.T.T.U.s.U.P.p.p.p.U.U.U.U.p.p.p.s.~.b .   s       ",
"      1 . . E -X`.E.E.U.U.p.U.p.P.P.U.U.L.P.P.P.T.T.U.s.s.U.P.P.p.U.U.U.U.s.p.s.R.@XV .   s       ",
"      + . o I 2X*X'.L.[.P.p.s.t.U.U.s.s.s.P.T.T.T.P.s.u.u.s.U.U.U.P.U.U.I.E.a.I.(.OXb . . a       ",
"        . . ` uX6X>X].T.9.p.t.t.U.P.s.s.s.s.T.T.T.P.p.u.u.s.p.U.U.p.i.U.U.R.L.,X4XeXn . . a       ",
"        l B ^ k.b.V.].R.U.W.p.p.s.s.s.u.s.s.U.U.U.U.s.p.u.t.p.p.p.s.s.s.i./.OXV.B.=.! y g O       ",
"            X $ % V H.(.R.U.p.Q.p.p.p.s.s.s.s.s.U.s.s.s.p.p.p.p.s.p.U.U.R.=X}.q $ % t             ",
"              . $ e XX:X(.R.L.U.p.s.s.s.a.a.a.a.s.s.s.s.p.p.p.p.p.9.U.U./.-X.X5 @ . +             ",
"              8 * u Q }.H.,X).L.U.s.s.s.a.a.u.u.u.a.a.s.p.P.P.P.p.U.E.G.OXwXk.u % < O             ",
"                    u 0 b Z.*X].T.E.U.U.s.s.u.u.u.u.s.s.P.U.E.E.P.E.&Xc.m 6 N a                   ",
"                    * . 3 *.4X@X%X_./.E.U.s.p.p.p.p.s.U.E./.).`.].*X7Xv.@ . 8                     ",
"                    a $ 0 t  X6X6X#X>X^.).L.E.T.P.P.P.E.Y.,X~.4X#XyXwXM.% . t                     ",
"                          d H F F P U ;.=X].`.F./.F.T.].G.-.D L P A K / x a 1                     ",
"                          y . . . $ $ Y 7X%X`.]./.].`.>X2XV $ . . . . h                           ",
"                          , o . . . o ` iXrX3X;X;X5X-XyXuXG . . . .   f                           ",
"                                1 x / O.j.g.g.h.g.g.g.g.j.O.X. .~ c l a                           ",
"                                      ..o . o . $ % % . $ h                                       ",
"                                      f   X X         X   1                                       ",
"                                      , O , > > > , , , :                                         "
};
